<?xml version="1.0" encoding="UTF-8"?>
<svg width="31px" height="30px" viewBox="0 0 31 30" version="1.1" xmlns="http://www.w3.org/2000/svg" xmlns:xlink="http://www.w3.org/1999/xlink">
    <!-- Generator: Sketch 45.2 (43514) - http://www.bohemiancoding.com/sketch -->
    <title>dribble</title>
    <desc>Created with Sketch.</desc>
    <defs></defs>
    <g id="2017-iterations" stroke="none" stroke-width="1" fill="none" fill-rule="evenodd" opacity="0.250679348">
        <g id="AP-Case-Study-Copy" transform="translate(-702.000000, -949.000000)" fill="#000000">
            <g id="icons" transform="translate(598.000000, 949.000000)">
                <path d="M124.284888,16.4797408 C125.354743,19.4629511 126.202476,22.4773533 126.771907,25.6082376 C129.777535,23.4789049 131.605981,20.6441809 132.253999,17.0225119 C129.625719,16.2937268 126.992243,16.0737591 124.284888,16.4797408 M122.399125,11.9533451 C122.709738,12.6502885 123.016942,13.3296865 123.31554,14.0129835 C123.507137,14.4516192 123.501454,14.4540561 123.985153,14.4101925 C124.049939,14.404344 124.114887,14.402557 124.17951,14.3965461 C126.435314,14.1835641 128.679914,14.3063821 130.917533,14.6254489 C131.409351,14.6956306 131.898734,14.7831953 132.409225,14.8660487 C132.3459,11.8843006 131.391003,9.24582548 129.530083,6.92284318 C127.591062,9.25102412 125.135706,10.7969714 122.399125,11.9533451 M116.623143,2.55045732 C118.390051,4.9790371 119.977054,7.45732893 121.402986,10.0568142 C124.004475,9.04096635 126.328637,7.65682696 128.119576,5.43099435 C124.744232,2.59870725 120.940557,1.64995442 116.623143,2.55045732 M118.932204,10.8247516 C117.476072,8.25255925 115.896538,5.80204768 114.183049,3.41294511 C110.432631,5.31841118 108.074534,8.28033952 107.097555,12.3867822 C111.11978,12.350879 115.041661,11.8318268 118.932204,10.8247516 M121.015409,14.9584872 C120.993976,14.9026017 120.984721,14.8715723 120.97092,14.8426548 C120.675569,14.2219041 120.375672,13.6032652 120.087141,12.9794278 C120.016997,12.8275298 119.945392,12.7952008 119.779288,12.8432882 C115.631226,14.041576 111.392561,14.5908454 107.080019,14.6066038 C107.005653,14.6067663 106.93145,14.6066038 106.842472,14.6066038 C106.796846,18.0276376 107.884074,20.9898908 110.122667,23.5481118 C111.402953,21.5113799 112.963002,19.7581367 114.808498,18.260277 C116.656916,16.7601428 118.706348,15.6318742 121.015409,14.9584872 M121.89659,17.05874 C117.606779,18.6150845 114.094558,21.0802173 111.76244,25.0622174 C111.832097,25.1208646 111.868954,25.1566053 111.910196,25.186335 C115.799279,27.9874303 119.98501,28.5279269 124.464956,26.8377173 C124.597937,26.7875179 124.61255,26.7209102 124.588682,26.5898069 C124.11992,24.019564 123.441214,21.5048816 122.598515,19.033413 C122.377043,18.3839072 122.139171,17.739925 121.89659,17.05874 M120.128545,29.9614535 L119.115357,29.9614535 C119.032549,29.9504063 118.950065,29.9380596 118.867094,29.9287995 C118.235475,29.8579679 117.597362,29.8236894 116.973375,29.7111062 C114.302229,29.2295816 111.910196,28.1222701 109.880249,26.3196398 C106.008703,22.8813855 104.292941,18.5543253 104.751311,13.3935324 C104.944206,11.2227729 105.654899,9.20439877 106.767457,7.32882491 C109.922627,2.01012309 116.117199,-0.850431654 122.168073,0.223900951 C125.129698,0.749613988 127.741742,2.01158521 129.89233,4.11476227 C133.800085,7.9360917 135.301356,12.5835184 134.271931,17.9522572 C133.485574,22.0538261 131.22701,25.2394587 127.748724,27.5403467 C125.68614,28.9046663 123.405818,29.675203 120.940232,29.8896472 C120.669561,29.9130411 120.399053,29.9375722 120.128545,29.9614535" id="dribble"></path>
            </g>
        </g>
    </g>
</svg>
