<?xml version="1.0" encoding="UTF-8"?>
<svg width="31px" height="28px" viewBox="0 0 31 28" version="1.1" xmlns="http://www.w3.org/2000/svg" xmlns:xlink="http://www.w3.org/1999/xlink">
    <!-- Generator: Sketch 45.2 (43514) - http://www.bohemiancoding.com/sketch -->
    <title>linkedin</title>
    <desc>Created with Sketch.</desc>
    <defs>
        <polygon id="path-1" points="27.6079819 27.6452026 0 27.6452026 0 13.8226013 0 0 27.6079819 0"></polygon>
    </defs>
    <g id="2017-iterations" stroke="none" stroke-width="1" fill="none" fill-rule="evenodd" opacity="0.250679348">
        <g id="AP-Case-Study-Copy" transform="translate(-757.000000, -949.000000)">
            <g id="icons" transform="translate(598.000000, 949.000000)">
                <g id="linkedin" transform="translate(159.510569, 0.000000)">
                    <g id="Group-3">
                        <mask id="mask-2" fill="white">
                            <use xlink:href="#path-1"></use>
                        </mask>
                        <g id="Clip-2"></g>
                        <path d="M23.5251249,23.5671799 L19.4330653,23.5671799 L19.4330653,17.1487068 C19.4330653,15.6174076 19.4050742,13.6487865 17.305363,13.6487865 C15.1744015,13.6487865 14.848095,15.3162566 14.848095,17.0378878 L14.848095,23.5671799 L10.7562271,23.5671799 L10.7562271,10.3685835 L14.6843666,10.3685835 L14.6843666,12.1718405 L14.7388149,12.1718405 C15.2852153,11.1343291 16.6209246,10.0401599 18.6130813,10.0401599 C22.7595892,10.0401599 23.5251249,12.7737584 23.5251249,16.3274557 L23.5251249,23.5671799 Z M6.14154035,8.56436624 C4.8290291,8.56436624 3.76671172,7.49823785 3.76671172,6.18531159 C3.76671172,4.87334564 4.8290291,3.80760138 6.14154035,3.80760138 C7.45060065,3.80760138 8.51445178,4.87334564 8.51445178,6.18531159 C8.51445178,7.49823785 7.45060065,8.56436624 6.14154035,8.56436624 Z M4.09320992,23.5671799 L8.18814531,23.5671799 L8.18814531,10.3685835 L4.09320992,10.3685835 L4.09320992,23.5671799 Z M25.5644445,0 L2.03778586,0 C0.913543103,0 0,0.892697665 0,1.99339696 L0,25.6610246 C0,26.7626842 0.913543103,27.6567263 2.03778586,27.6567263 L25.5644445,27.6567263 C26.6906044,27.6567263 27.6079819,26.7626842 27.6079819,25.6610246 L27.6079819,1.99339696 C27.6079819,0.892697665 26.6906044,0 25.5644445,0 L25.5644445,0 Z" id="Fill-1" fill="#1A1919" mask="url(#mask-2)"></path>
                    </g>
                    <path d="M29.0012071,22.9673747 L28.8719882,22.9673747 L28.8719882,22.7050199 L29.0357166,22.7050199 C29.1202648,22.7050199 29.2170831,22.7188483 29.2170831,22.8296672 C29.2170831,22.9571955 29.119498,22.9673747 29.0012071,22.9673747 Z M29.1296591,23.0451592 C29.26022,23.0290261 29.3284721,22.9571955 29.3284721,22.8360052 C29.3284721,22.6883106 29.2395143,22.616672 29.0562305,22.616672 L28.7609826,22.616672 L28.7609826,23.393173 L28.8719882,23.393173 L28.8719882,23.0551464 L29.0090676,23.0551464 L29.0121351,23.0591796 L29.2243685,23.393173 L29.3432345,23.393173 L29.1148967,23.0470798 L29.1296591,23.0451592 L29.1296591,23.0451592 Z" id="Fill-4" fill="#1A1919"></path>
                    <path d="M29.0138605,23.6440042 C28.6626305,23.6440042 28.3875132,23.3664766 28.3875132,23.0055947 C28.3875132,22.6456732 28.6626305,22.3679536 29.0138605,22.3679536 C29.3647071,22.3679536 29.6398245,22.6456732 29.6398245,23.0055947 C29.6398245,23.3664766 29.3647071,23.6440042 29.0138605,23.6440042 Z M29.0138605,22.2713471 C28.6022389,22.2713471 28.2795751,22.5942009 28.2795751,23.0055947 C28.2795751,23.4181409 28.6022389,23.7400345 29.0138605,23.7400345 C29.4250987,23.7400345 29.7471874,23.4181409 29.7471874,23.0055947 C29.7471874,22.5942009 29.4250987,22.2713471 29.0138605,22.2713471 L29.0138605,22.2713471 Z" id="Fill-5" fill="#1A1919"></path>
                </g>
            </g>
        </g>
    </g>
</svg>