<?xml version="1.0" encoding="UTF-8"?>
<svg width="50px" height="50px" viewBox="0 0 50 50" version="1.1" xmlns="http://www.w3.org/2000/svg" xmlns:xlink="http://www.w3.org/1999/xlink">
    <!-- Generator: Sketch 46 (44423) - http://www.bohemiancoding.com/sketch -->
    <title>scattered</title>
    <desc>Created with Sketch.</desc>
    <defs>
        <linearGradient x1="50%" y1="0%" x2="50%" y2="100%" id="linearGradient-1">
            <stop stop-color="#F2C1B1" offset="0%"></stop>
            <stop stop-color="#E08E79" offset="100%"></stop>
        </linearGradient>
        <linearGradient x1="50%" y1="0%" x2="50%" y2="100%" id="linearGradient-2">
            <stop stop-color="#E4F2F0" offset="0%"></stop>
            <stop stop-color="#C5E0DC" offset="100%"></stop>
        </linearGradient>
        <linearGradient x1="50%" y1="0%" x2="50%" y2="100%" id="linearGradient-3">
            <stop stop-color="#1C91A7" offset="0%"></stop>
            <stop stop-color="#0C586E" offset="100%"></stop>
        </linearGradient>
        <linearGradient x1="50%" y1="0%" x2="50%" y2="100%" id="linearGradient-4">
            <stop stop-color="#2BC7A5" offset="0%"></stop>
            <stop stop-color="#13966C" offset="100%"></stop>
        </linearGradient>
    </defs>
    <g id="2017-iterations" stroke="none" stroke-width="1" fill="none" fill-rule="evenodd">
        <g id="AP-Case-Study" transform="translate(-300.000000, -426.000000)">
            <g id="Group-9" transform="translate(300.000000, 426.000000)">
                <g id="scattered">
                    <polygon id="Fill-1" fill="url(#linearGradient-1)" points="3.334 1.666 0 16.666 11.666 10"></polygon>
                    <polygon id="Fill-2" fill="url(#linearGradient-2)" points="40 16.666 50 5 36.666 1.666"></polygon>
                    <polygon id="Fill-3" fill="url(#linearGradient-2)" points="35 40 21.666 36.666 25 50"></polygon>
                    <polygon id="Fill-4" fill="url(#linearGradient-1)" points="21.666 31.666 8.332 31.666 14.998 43.332"></polygon>
                    <polygon id="Fill-5" fill="url(#linearGradient-3)" points="26.7365 0 15 8.334 33.4045 13.334"></polygon>
                    <polygon id="Fill-6" fill="url(#linearGradient-4)" points="16.666 13.334 25 30 35 20"></polygon>
                    <polygon id="Fill-7" fill="url(#linearGradient-4)" points="3.334 36.666 0 50 13.334 50"></polygon>
                    <polygon id="Fill-8" fill="url(#linearGradient-2)" points="1.666 28.334 18.332 28.334 11.666 16.668"></polygon>
                    <polygon id="Fill-9" fill="url(#linearGradient-3)" points="46.666 50 50 38.334 36.666 38.334"></polygon>
                    <polygon id="Fill-10" fill="url(#linearGradient-1)" points="45 35 50 16.666 31.666 30"></polygon>
                </g>
            </g>
        </g>
    </g>
</svg>