<?xml version="1.0" encoding="UTF-8"?>
<svg width="42px" height="33px" viewBox="0 0 42 33" version="1.1" xmlns="http://www.w3.org/2000/svg" xmlns:xlink="http://www.w3.org/1999/xlink">
    <!-- Generator: Sketch 45.2 (43514) - http://www.bohemiancoding.com/sketch -->
    <title>A</title>
    <desc>Created with Sketch.</desc>
    <defs></defs>
    <g id="2017-iterations" stroke="none" stroke-width="1" fill="none" fill-rule="evenodd">
        <g id="site-copy-2" transform="translate(-300.000000, -225.000000)">
            <g id="Group" transform="translate(300.000000, 225.000000)">
                <g id="A">
                    <path d="M26.7985603,16.0348511 L26.7988077,16.0237778 C27.6025688,16.2666125 28.3450535,16.548676 29.0272074,16.8535868 C29.3993955,17.017782 29.753841,17.1888014 30.0906784,17.3640345 L30.09109,17.3709655 C33.4097236,19.1202527 34.995308,21.272289 34.995308,21.272289 L36.7211575,29.0430973 C34.1452976,25.2218987 31.6121817,22.8571376 28.9938882,21.311814 C26.6491754,19.9371432 24.2343205,19.2240211 21.659053,18.7139436 C18.7251967,18.1322669 16.4038022,17.7874532 13.713492,18.0044029 C6.90242399,18.5546376 4.6519353,19.7924036 1.69752664,21.591933 C1.12308684,21.939891 -0.237482579,23.0393123 0.0358644485,22.5970284 C1.59065412,21.0437945 3.75071221,19.5806943 5.14416548,18.6741171 C12.8975614,13.6423519 22.7544963,15.2752388 22.7544963,15.2752388 C24.2417943,15.4030259 25.588868,15.6745934 26.7985603,16.0348511 Z" id="Combined-Shape" fill="#27A3EC"></path>
                    <polygon id="Fill-7" fill="#2F4852" points="18.1618004 32.7152131 13.6869769 32.7152131 25.0733277 0 30.2939552 0 41.7285881 32.7152131 37.1048092 32.7152131 27.6086501 3.73569716"></polygon>
                </g>
            </g>
        </g>
    </g>
</svg>