<?xml version="1.0" encoding="UTF-8"?>
<svg width="50px" height="48px" viewBox="0 0 50 48" version="1.1" xmlns="http://www.w3.org/2000/svg" xmlns:xlink="http://www.w3.org/1999/xlink">
    <!-- Generator: Sketch 45.2 (43514) - http://www.bohemiancoding.com/sketch -->
    <title>flow</title>
    <desc>Created with Sketch.</desc>
    <defs>
        <linearGradient x1="50%" y1="0%" x2="50%" y2="100%" id="linearGradient-1">
            <stop stop-color="#E4F2F0" offset="0%"></stop>
            <stop stop-color="#C5E0DC" offset="100%"></stop>
        </linearGradient>
        <linearGradient x1="50%" y1="0%" x2="50%" y2="100%" id="linearGradient-2">
            <stop stop-color="#2BC7A5" offset="0%"></stop>
            <stop stop-color="#13966C" offset="100%"></stop>
        </linearGradient>
        <linearGradient x1="50%" y1="0%" x2="50%" y2="100%" id="linearGradient-3">
            <stop stop-color="#1C91A7" offset="0%"></stop>
            <stop stop-color="#0C586E" offset="100%"></stop>
        </linearGradient>
        <linearGradient x1="50%" y1="0%" x2="50%" y2="100%" id="linearGradient-4">
            <stop stop-color="#F2C1B1" offset="0%"></stop>
            <stop stop-color="#E08E79" offset="100%"></stop>
        </linearGradient>
    </defs>
    <g id="2017-iterations" stroke="none" stroke-width="1" fill="none" fill-rule="evenodd">
        <g id="AP-Case-Study" transform="translate(-720.000000, -496.000000)">
            <g id="Group-2" transform="translate(720.000000, 496.000000)">
                <g id="flow">
                    <path d="M16.6666667,8.63725251 C16.6666667,13.2400728 12.9358859,16.9705858 8.33333333,16.9705858 C3.73078076,16.9705858 0,13.2398051 0,8.63725251 C0,4.03443226 3.73078076,0.303919175 8.33333333,0.303919175 C12.9358859,0.303919175 16.6666667,4.03469994 16.6666667,8.63725251" id="Fill-1" fill="url(#linearGradient-1)"></path>
                    <path d="M49.0196078,8.63329648 C49.0196078,13.2361167 45.2888271,16.9666298 40.6862745,16.9666298 C36.0834543,16.9666298 32.3529412,13.235849 32.3529412,8.63329648 C32.3529412,4.03047623 36.0837219,0.299963143 40.6862745,0.299963143 C45.2890948,0.299963143 49.0196078,4.0307439 49.0196078,8.63329648" id="Fill-3" fill="url(#linearGradient-2)"></path>
                    <path d="M17.3227354,39.1329412 C17.3227354,43.8135095 13.5268134,47.6070378 8.84646294,47.6070378 C4.16611243,47.6070378 0.370190449,43.8132373 0.370190449,39.1329412 C0.370190449,34.4502498 4.16611243,30.6566688 8.84646294,30.6566688 C13.5268134,30.6566688 17.3227354,34.4504676 17.3227354,39.1329412 L6.575583,39.1318533" id="Fill-5" fill="url(#linearGradient-3)"></path>
                    <path d="M49.6974552,39.1329412 C49.6974552,43.8135095 45.9015333,47.6070378 41.2211828,47.6070378 C36.5406145,47.6070378 32.7449103,43.8132373 32.7449103,39.1329412 C32.7449103,34.4502498 36.5408322,30.6566688 41.2211828,30.6566688 C45.901751,30.6566688 49.6974552,34.4504676 49.6974552,39.1329412" id="Fill-6" fill="url(#linearGradient-4)"></path>
                    <path d="M27.4567885,8.0100031 L18.627451,8.0100031 L18.627451,9.52405987 L27.4573589,9.52405987 L25.6464729,11.3349458 L27.8263325,11.3349458 L30.3921569,8.76700434 L27.8263325,6.20117998 L25.6464729,6.20117998 L27.4567885,8.0100031 Z" id="Combined-Shape" fill-opacity="0.2" fill="#1A2F28"></path>
                    <path d="M28.1344467,38.3735064 L19.2813421,38.3735064 L19.2813421,39.8918861 L28.1372792,39.8918861 L26.3204047,41.7057649 L28.5064881,41.7057703 L31.0796384,39.1347432 L28.5064881,36.5615929 L26.3204047,36.5594643 L28.1344467,38.3735064 Z" id="Combined-Shape" fill-opacity="0.2" fill="#1A2F28"></path>
                    <path d="M19.6136827,30.2872658 L35.1647718,17.1652956 L34.1865436,16.0042041 L18.6385905,29.1235281 L18.8541262,26.5715083 L17.1847796,27.9813949 L16.8806845,31.6071926 L20.5064822,31.9112877 L22.1758233,30.5035297 L19.6136827,30.2872658 Z" id="Combined-Shape" fill-opacity="0.2" fill="#1A2F28"></path>
                </g>
            </g>
        </g>
    </g>
</svg>