<?xml version="1.0" encoding="UTF-8"?>
<svg width="37px" height="25px" viewBox="0 0 37 25" version="1.1" xmlns="http://www.w3.org/2000/svg" xmlns:xlink="http://www.w3.org/1999/xlink">
    <!-- Generator: Sketch 45.2 (43514) - http://www.bohemiancoding.com/sketch -->
    <title>email</title>
    <desc>Created with Sketch.</desc>
    <defs></defs>
    <g id="2017-iterations" stroke="none" stroke-width="1" fill="none" fill-rule="evenodd" opacity="0.250679348">
        <g id="AP-Case-Study-Copy" transform="translate(-598.000000, -951.000000)" fill="#000000">
            <g id="icons" transform="translate(598.000000, 947.000000)">
                <g id="email">
                    <path d="M3.44215055,4 C1.54965618,4 0,5.55241379 0,7.44827586 L0,25.5517241 C0,27.4475862 1.54965618,29 3.44215055,29 L33.5609679,29 C35.4534622,29 37.0031184,27.4475862 37.0031184,25.5517241 L37.0031184,7.44827586 C37.0031184,5.55241379 35.4534622,4 33.5609679,4 L3.44215055,4 Z M3.44215055,5.72413793 L33.5609679,5.72413793 C34.5290727,5.72413793 35.2820431,6.47844828 35.2820431,7.44827586 L35.2820431,25.5517241 C35.2820431,26.5215517 34.5290727,27.2758621 33.5609679,27.2758621 L3.44215055,27.2758621 C2.47404571,27.2758621 1.72107527,26.5215517 1.72107527,25.5517241 L1.72107527,7.44827586 C1.72107527,6.47844828 2.47404571,5.72413793 3.44215055,5.72413793 Z M5.32457663,9.15896552 C4.97162282,9.17075 4.66402794,9.39805603 4.5447144,9.72974138 C4.42706169,10.0631207 4.52286535,10.4335345 4.78674061,10.6675862 L11.2140962,16.6076724 L4.80050921,22.3188793 C4.6055458,22.463681 4.481168,22.6825647 4.45763659,22.923319 C4.43242714,23.1640905 4.5114202,23.4048707 4.672771,23.5850431 C4.83412181,23.7668879 5.06270212,23.8712759 5.30474984,23.8729612 C5.54677605,23.8746466 5.77873397,23.775306 5.94344088,23.5985129 L12.4783637,17.7795474 L16.1222243,21.1604957 C17.456746,22.3980388 19.5189815,22.3946767 20.8551813,21.1604957 L24.5258906,17.7795474 L31.0608134,23.5985129 C31.2255246,23.775306 31.4574697,23.8763276 31.6995045,23.8729612 C31.9415307,23.8712759 32.1701325,23.7668879 32.3314833,23.5867284 C32.4928341,23.4048836 32.5718272,23.1657974 32.5466177,22.9233233 C32.5230863,22.6825517 32.3987128,22.4636681 32.2037451,22.3188836 L25.7901581,16.6076767 L32.2175137,10.6675905 C32.5671071,10.3443147 32.5872781,9.79879741 32.2645765,9.4485819 C31.9418749,9.09836638 31.3973267,9.07815948 31.0477333,9.40143534 L19.6860548,19.8945388 C18.9784778,20.5494957 17.9985836,20.5494957 17.2926845,19.8945388 L5.95768278,9.40143534 C5.78961117,9.23811207 5.56102656,9.15056034 5.32570393,9.15897845 L5.32457663,9.15896552 Z"></path>
                </g>
            </g>
        </g>
    </g>
</svg>