<?xml version="1.0" encoding="UTF-8"?>
<svg width="50px" height="24px" viewBox="0 0 50 24" version="1.1" xmlns="http://www.w3.org/2000/svg" xmlns:xlink="http://www.w3.org/1999/xlink">
    <!-- Generator: Sketch 46 (44423) - http://www.bohemiancoding.com/sketch -->
    <title>infinity</title>
    <desc>Created with Sketch.</desc>
    <defs>
        <linearGradient x1="50%" y1="0%" x2="50%" y2="100%" id="linearGradient-1">
            <stop stop-color="#1C91A7" offset="0%"></stop>
            <stop stop-color="#0C586E" offset="100%"></stop>
        </linearGradient>
    </defs>
    <g id="2017-iterations" stroke="none" stroke-width="1" fill="none" fill-rule="evenodd">
        <g id="AP-Case-Study" transform="translate(-300.000000, -508.000000)" fill="url(#linearGradient-1)">
            <g id="Group-10" transform="translate(300.000000, 496.000000)">
                <path d="M38.3850106,35.2486994 C35.2826068,35.2486994 32.3614348,34.0385235 30.1674063,31.8420621 L26.53477,28.2094257 L29.5886759,25.1555198 L33.2213122,28.7881562 C34.6004467,30.1672906 36.4315251,30.92336 38.3851187,30.92336 C40.3323865,30.92336 42.1634649,30.1672906 43.5425994,28.7881562 C46.3916464,25.9391091 46.3916464,21.311807 43.5425994,18.460327 C42.1634649,17.0811925 40.3302779,16.3251232 38.3851187,16.3251232 C36.4336337,16.3251232 34.6004467,17.0811925 33.2213122,18.460327 L29.5886759,22.0929633 L28.0638316,23.6241334 L25.0035458,26.6844192 L23.4744843,28.2092635 L19.8418479,31.8418999 C17.6474951,34.0362527 14.7266475,35.2485372 11.6242437,35.2485372 C8.52173182,35.2485372 5.60066791,34.0383613 3.40663949,31.8418999 C1.21228451,29.6454384 0,26.7266994 0,23.6242956 C0,20.5218919 1.2101759,17.6007198 3.40663949,15.4066914 C5.60099231,13.2123386 8.52183995,12.0000541 11.6242437,12.0000541 C14.7267556,12.0000541 17.6478195,13.21023 19.8418479,15.4066914 L23.4744843,19.0393277 L20.4205784,22.0932336 L16.787942,18.4605973 C15.4088076,17.0814628 13.5756206,16.3253935 11.6241356,16.3253935 C9.67686778,16.3253935 7.8457894,17.0814628 6.46665493,18.4605973 C5.08330325,19.843949 4.32512531,21.6771359 4.32512531,23.6244038 C4.32512531,25.5716716 5.08119465,27.4090757 6.46665493,28.7818844 C7.8457894,30.1652361 9.67897638,30.923414 11.6241356,30.923414 C13.5756206,30.923414 15.4088076,30.1673447 16.787942,28.7882102 L20.4205784,25.1555739 L21.9433141,23.6244038 L25.0035999,20.564118 L26.5326614,19.0392736 L30.1652977,15.4066373 C32.3617592,13.2122845 35.2804982,12 38.382902,12 C41.4854139,12 44.4064778,13.2101759 46.6005062,15.4066373 C51.1328131,19.9368356 51.1328131,27.3121341 46.6026148,31.8418458 C44.4061534,34.0364149 41.4874143,35.2486994 38.3850106,35.2486994 Z" id="infinity"></path>
            </g>
        </g>
    </g>
</svg>