<?xml version="1.0" encoding="UTF-8"?>
<svg width="31px" height="26px" viewBox="0 0 31 26" version="1.1" xmlns="http://www.w3.org/2000/svg" xmlns:xlink="http://www.w3.org/1999/xlink">
    <!-- Generator: Sketch 45.2 (43514) - http://www.bohemiancoding.com/sketch -->
    <title>medium</title>
    <desc>Created with Sketch.</desc>
    <defs></defs>
    <g id="2017-iterations" stroke="none" stroke-width="1" fill="none" fill-rule="evenodd" opacity="0.24">
        <g id="AP-Case-Study-Copy" transform="translate(-812.000000, -953.000000)" fill="#1B1A19">
            <g id="icons" transform="translate(598.000000, 949.000000)">
                <g id="medium" transform="translate(214.342327, 3.994860)">
                    <path d="M29.6589964,4.80855588 L20.2186841,0.0800001695 C20.1758259,0.0584814624 20.1291649,0.0484943113 20.082504,0.0472587874 C20.0794207,0.0471558271 20.0764401,0.0462291842 20.0733568,0.0462291842 C19.9585544,0.0462291842 19.8442659,0.103989924 19.7823939,0.204582158 L13.9637526,9.67682875 L20.4590805,20.2506478 L29.7495434,5.12680623 C29.8184042,5.01457948 29.7765738,4.86744918 29.6589964,4.80855588" id="Fill-47"></path>
                    <polyline id="Fill-48" points="10.8875213 6.34740084 10.8875213 16.5536516 19.9436517 21.0897744 10.8875213 6.34740084"></polyline>
                    <path d="M29.0514791,25.6456657 C29.5053442,25.8730021 29.876679,25.6430917 29.876679,25.1346736 L29.876679,6.59810922 L20.7348323,21.479994 L29.0514791,25.6456657 Z" id="Fill-50"></path>
                    <path d="M0.625606208,0.217761079 C0.54636481,0.178018395 0.4708234,0.159279617 0.402579188,0.159279617 C0.30535174,0.159279617 0.223129797,0.197580856 0.165266105,0.267490914 C0.108635742,0.335856568 0.0754386326,0.434698476 0.0754386326,0.558353822 L0.0754386326,20.4735569 C0.0754386326,20.8125023 0.323029458,21.2137387 0.625606208,21.3652962 L9.18429379,25.6522551 C9.30320728,25.7118692 9.416468,25.7400803 9.51883432,25.7400803 C9.80722779,25.7400803 10.0094938,25.5165534 10.0094938,25.141366 L10.0094938,5.05524881 C10.0094938,4.97123319 9.96211337,4.89432183 9.88708585,4.85674131 L0.625606208,0.217761079 Z" id="Fill-51"></path>
                </g>
            </g>
        </g>
    </g>
</svg>