<?xml version="1.0" encoding="UTF-8"?>
<svg width="50px" height="33px" viewBox="0 0 50 33" version="1.1" xmlns="http://www.w3.org/2000/svg" xmlns:xlink="http://www.w3.org/1999/xlink">
    <!-- Generator: Sketch 45.2 (43514) - http://www.bohemiancoding.com/sketch -->
    <title>handshake</title>
    <desc>Created with Sketch.</desc>
    <defs>
        <linearGradient x1="50%" y1="0%" x2="50%" y2="100%" id="linearGradient-1">
            <stop stop-color="#E4F2F0" offset="0%"></stop>
            <stop stop-color="#C5E0DC" offset="100%"></stop>
        </linearGradient>
        <linearGradient x1="50%" y1="-50.5123063%" x2="50%" y2="100%" id="linearGradient-2">
            <stop stop-color="#1C91A7" offset="0%"></stop>
            <stop stop-color="#0C586E" offset="100%"></stop>
        </linearGradient>
    </defs>
    <g id="2017-iterations" stroke="none" stroke-width="1" fill="none" fill-rule="evenodd">
        <g id="AP-Case-Study" transform="translate(-720.000000, -585.000000)">
            <g id="Group-7" transform="translate(720.000000, 576.000000)">
                <g id="handshake" transform="translate(0.000000, 9.000000)">
                    <path d="M15.9556818,24.3721591 C15.9379261,23.7551705 15.1189205,23.2202841 14.6484091,23.5953409 C14.2156136,23.9415795 13.8360795,24.4343182 13.6097159,24.9403409 C13.372233,25.4774489 13.7872727,25.98125 14.3310227,25.9968182 C14.9990909,26.0190114 15.975625,25.0402273 15.9556818,24.3721591 Z" id="Fill-1" fill="#D4E8E5"></path>
                    <path d="M40.7982955,22.4875 C41.5063068,22.050267 42.1477273,21.6552273 42.826875,21.2357386 C42.427375,20.4677841 42.0345455,19.7442614 41.6705114,19.0029545 C40.4053977,16.4350568 39.1336932,13.8693182 37.9063068,11.2836364 C37.6133409,10.6688636 37.2648864,10.3869886 36.5613068,10.2271591 C34.6792045,9.79880114 32.8326136,9.20397727 30.9749432,8.66465909 C29.5434091,8.24961932 28.1229545,8.13864773 26.7025,8.70460795 C25.8590909,9.03974432 25.0223864,9.41040341 24.1567614,9.66784659 C22.5055114,10.1650057 21.1848864,10.9795511 20.3992045,12.6219375 C19.8665341,13.7383011 19.0875,14.7393239 18.3617614,15.8801193 C20.2727273,16.3284489 21.7775,15.8756818 22.949375,14.5395511 C23.4420966,13.9780284 23.9880682,13.6917102 24.685,13.5763125 C25.5150568,13.4387045 26.3718182,13.3632443 27.1641477,13.1013466 C28.1873295,12.7662102 28.4536364,12.8327898 28.7044318,13.8759489 C29.1216932,15.6027102 30.109375,16.8721989 31.7650568,17.5314034 C32.5618182,17.8487841 33.4207955,17.9974886 34.2486364,18.2305511 C34.4949943,18.3015739 34.7813068,18.3481818 34.9610795,18.5057614 C35.8532955,19.2870114 36.7144318,20.0993409 37.5844886,20.9005341 C38.3990341,21.6484886 39.2180114,22.3964432 40.0569886,23.1688295 C40.1990341,23.0356591 40.3255455,22.9158125 40.4897841,22.7604489 L40.7982955,22.4875 Z" id="Fill-2" fill="#D4E8E5"></path>
                    <path d="M16.5306818,27.8852273 C16.497392,28.7463636 17.17875,29.2657386 17.8690341,28.9727841 C18.6835795,28.6265455 19.2317614,27.9917614 19.4936932,27.1439205 C19.624642,26.7177841 19.4825966,26.2982955 19.080875,26.1140909 C18.7479545,25.9609489 18.2596818,25.7944886 17.9888864,25.929875 C17.1610455,26.3404773 16.6705341,27.0728864 16.5307045,27.8852159 L16.5306818,27.8852273 Z" id="Fill-3" fill="#D4E8E5"></path>
                    <path d="M21.5420455,31.2875 C20.8673295,31.6559318 20.1903977,31.1809659 20.2858523,30.4152273 C20.3768523,29.6872727 20.7230852,29.0525 21.3511932,28.6663068 C21.5797955,28.5242614 21.9926136,28.5153864 22.2434091,28.626358 C22.2456307,28.6241364 23.6061364,29.4231193 21.5420455,31.2874943 L21.5420455,31.2875 Z" id="Fill-4" fill="#D4E8E5"></path>
                    <path d="M24.725,32.6460227 C24.2899886,32.812483 23.8505114,32.5616818 23.9526136,32.1155739 C23.9526136,32.1155739 24.1212955,30.4953466 25.2443182,30.7838693 C25.7725511,30.9170341 25.90125,32.1954602 24.7249659,32.6459716 L24.725,32.6460227 Z" id="Fill-5" fill="#D4E8E5"></path>
                    <path d="M38.2056818,8.78465909 C40.3341477,12.4844886 42.5513636,18.0107955 44.66875,21.6931818 C46.2223864,20.9097159 47.7338068,20.1351136 49.2585795,19.389375 C49.5604261,19.2406705 49.6558636,19.0675511 49.6625227,18.7390909 C49.7779318,13.3058523 49.7956932,6.00386364 49.9221989,0.570340909 C49.9244148,0.443829545 49.928858,0.317323864 49.9332955,0.0887159091 C45.9715341,3.02729545 42.0986364,5.89723864 38.2054545,8.78473864 L38.2056818,8.78465909 Z" id="Fill-6" fill="url(#linearGradient-1)"></path>
                    <path d="M27.4880682,15.0568182 C27.321608,14.981358 27.1573693,14.8459716 26.9886875,14.8415284 C26.7112557,14.8326477 26.4338239,14.9280852 26.154142,14.9458409 C25.2108466,15.0035455 24.309767,15.1322727 23.7149375,16.00675 C23.5950852,16.1843068 23.3886761,16.3085966 23.2089034,16.4373239 C21.5576534,17.6224943 19.7554375,17.9731761 17.8200398,17.3162443 C16.7569148,16.9544716 16.4883352,16.2664148 16.9744148,15.283233 C17.285142,14.6506761 17.6669148,14.0514148 18.0419716,13.4543693 C18.8498693,12.1737443 19.6754943,10.9041989 20.483392,9.64357386 C18.5058352,9.72347159 16.5283352,9.79227841 14.5527102,9.89659091 C14.4017898,9.90547159 14.1887216,10.1163182 14.1310114,10.2783409 C13.8313864,11.1128864 13.5717045,11.9606705 13.3009545,12.8040795 C12.4508977,15.4718636 11.6052727,18.1396477 10.753,20.8165795 C11.5875455,21.4269205 12.3976023,22.0195341 13.2032841,22.6054432 C14.7657841,21.3070341 16.9874886,21.848625 17.5733977,24.3655 C18.4345341,24.1413352 19.2446477,24.2434318 19.974875,24.7960739 C20.6895341,25.3376193 21.0912386,26.0456193 21.1068068,26.964483 C22.8668636,26.771392 23.9632273,27.4971534 24.4204432,29.1218125 C26.1605,28.9819886 27.0993068,29.8231761 27.1481705,31.5055057 C27.152608,31.6431136 27.2236307,31.8761534 27.3079716,31.8983523 C28.1735398,32.1247386 29.0480284,32.3533409 30.0201307,31.9116705 C29.7537955,31.7207955 29.5540455,31.5876307 29.3676307,31.4411477 C28.342233,30.6221705 27.3079716,29.8120568 26.298142,28.9753523 C25.8320568,28.5891648 25.7743466,28.0542727 26.100608,27.7124545 C26.4290852,27.3706591 26.8285625,27.417267 27.334642,27.8145511 C28.5243011,28.751142 29.698392,29.7099489 30.9257216,30.5933011 C31.8357216,31.248017 32.805608,31.1437273 33.737767,30.4090852 C33.584625,30.3025511 33.4336989,30.2137727 33.2983125,30.1028011 C31.640358,28.7533693 29.9779716,27.4128011 28.3355852,26.0434261 C27.8983523,25.6794318 27.8606193,25.135642 28.1558068,24.8160398 C28.4953864,24.4520511 28.9547841,24.500875 29.4253523,24.935892 C30.0778523,25.5395852 30.6948977,26.1898693 31.3984773,26.7247557 C32.5681364,27.6147557 33.7622273,28.4825966 35.0139886,29.2460625 C35.4467841,29.5101761 36.0881932,29.5368125 36.6230795,29.5057386 C37.1313352,29.4746648 37.3510341,28.9996989 37.4731364,28.5225 C37.5974261,28.0275625 37.1779489,27.9254545 36.9116136,27.7057386 C34.9762727,26.1165909 33.040875,24.5319318 31.1144545,22.9317045 C30.7482443,22.6276364 30.6150739,22.2236932 30.9857273,21.8242045 C31.3452784,21.4402386 31.7469773,21.4113864 32.1598182,21.7731534 C32.8433977,22.3724148 33.5136818,22.9894034 34.2194773,23.5598011 C35.50675,24.6007102 36.8051591,25.6283239 38.1212955,26.6315057 C38.6495284,27.0332273 39.2265795,26.9644261 39.6039091,26.5560455 C40.0034091,26.1254716 40.0145114,25.5262159 39.59725,25.0135455 C39.344233,24.7006023 39.060142,24.4098523 38.7649773,24.134625 C37.6308295,23.0737159 36.4988977,22.008375 35.3425909,20.9696818 C34.6967386,20.3926364 34.1352045,19.7556477 33.1563977,19.5869545 C30.8348636,19.191892 28.9238977,18.0954773 27.7808864,15.9137727 L27.4880682,15.0568182 Z" id="Fill-7" fill="url(#linearGradient-2)"></path>
                    <path d="M13.0568182,7.94772727 C8.72886364,5.73051136 4.44318182,3.53545455 0.0687505682,1.29375 C0.117578409,1.55120455 0.144210795,1.69547159 0.173063068,1.83973864 C0.652466477,4.36769318 1.06749489,8.76871591 1.54914261,11.297125 C2.08403466,14.1069545 2.61448295,16.9167841 3.16044886,19.7243977 C3.19152273,19.8841989 3.31802841,20.1105852 3.44897727,20.1527557 C5.11801136,20.6943011 6.80034091,21.209233 8.53596591,21.750767 C10.0272727,17.7555682 11.5697727,11.9318182 13.0568182,7.94772727 Z" id="Fill-8" fill="url(#linearGradient-2)"></path>
                </g>
            </g>
        </g>
    </g>
</svg>