<?xml version="1.0" encoding="UTF-8"?>
<svg width="30px" height="30px" viewBox="0 0 30 30" version="1.1" xmlns="http://www.w3.org/2000/svg" xmlns:xlink="http://www.w3.org/1999/xlink">
    <!-- Generator: Sketch 47.1 (45422) - http://www.bohemiancoding.com/sketch -->
    <title>apComplete</title>
    <desc>Created with Sketch.</desc>
    <defs></defs>
    <g id="AccepTx-Pro" stroke="none" stroke-width="1" fill="none" fill-rule="evenodd">
        <g id="apComplete" fill="#ABE07B">
            <path d="M15,30 C6.71572875,30 0,23.2842712 0,15 C0,6.71572875 6.71572875,0 15,0 C23.2842712,0 30,6.71572875 30,15 C30,23.2842712 23.2842712,30 15,30 Z M21.1493859,9.18047394 C20.9085451,8.93984202 20.5145939,8.93984202 20.2745886,9.18047394 L12.5142093,16.9416888 C12.2733685,17.1825296 11.8794173,17.1825296 11.6394121,16.9416888 L9.72772516,15.0308374 C9.48709325,14.7902055 9.09293316,14.7902055 8.85292788,15.0308374 L7.68047394,16.2041269 C7.43984202,16.4447588 7.43984202,16.8389189 7.68047394,17.0789242 L11.6394121,21.0370267 C11.8802529,21.2776587 12.2742041,21.2776587 12.5142093,21.0370267 L22.3218399,11.2277252 C22.5624718,10.9870932 22.5624718,10.5929332 22.3218399,10.3520924 L21.1493859,9.18047394 Z" id="Combined-Shape"></path>
        </g>
    </g>
</svg>