<?xml version="1.0" encoding="UTF-8"?>
<svg width="50px" height="49px" viewBox="0 0 50 49" version="1.1" xmlns="http://www.w3.org/2000/svg" xmlns:xlink="http://www.w3.org/1999/xlink">
    <!-- Generator: Sketch 45.2 (43514) - http://www.bohemiancoding.com/sketch -->
    <title>target</title>
    <desc>Created with Sketch.</desc>
    <defs>
        <radialGradient cx="50%" cy="134.485737%" fx="50%" fy="134.485737%" r="134.485737%" gradientTransform="translate(0.500000,1.344857),scale(1.000000,0.115430),rotate(-90.000000),translate(-0.500000,-1.344857)" id="radialGradient-1">
            <stop stop-color="#E4F2F0" offset="0%"></stop>
            <stop stop-color="#C5E0DC" offset="100%"></stop>
        </radialGradient>
        <radialGradient cx="50%" cy="134.485737%" fx="50%" fy="134.485737%" r="134.485737%" gradientTransform="translate(0.500000,1.344857),scale(0.115430,1.000000),rotate(-90.000000),translate(-0.500000,-1.344857)" id="radialGradient-2">
            <stop stop-color="#E4F2F0" offset="0%"></stop>
            <stop stop-color="#C5E0DC" offset="100%"></stop>
        </radialGradient>
        <radialGradient cx="50%" cy="134.485737%" fx="50%" fy="134.485737%" r="134.485737%" gradientTransform="translate(0.500000,1.344857),scale(1.000000,0.115544),rotate(-90.000000),translate(-0.500000,-1.344857)" id="radialGradient-3">
            <stop stop-color="#E4F2F0" offset="0%"></stop>
            <stop stop-color="#C5E0DC" offset="100%"></stop>
        </radialGradient>
        <radialGradient cx="50%" cy="134.485737%" fx="50%" fy="134.485737%" r="134.485737%" gradientTransform="translate(0.500000,1.344857),scale(0.115543,1.000000),rotate(-90.000000),translate(-0.500000,-1.344857)" id="radialGradient-4">
            <stop stop-color="#E4F2F0" offset="0%"></stop>
            <stop stop-color="#C5E0DC" offset="100%"></stop>
        </radialGradient>
        <radialGradient cx="50%" cy="50%" fx="50%" fy="50%" r="41.3817288%" gradientTransform="translate(0.500000,0.500000),scale(1.000000,0.999938),rotate(-90.000000),translate(-0.500000,-0.500000)" id="radialGradient-5">
            <stop stop-color="#1C91A7" offset="0%"></stop>
            <stop stop-color="#0C586E" offset="100%"></stop>
        </radialGradient>
        <radialGradient cx="50%" cy="50%" fx="50%" fy="50%" r="97.7740423%" gradientTransform="translate(0.500000,0.500000),scale(0.999362,1.000000),rotate(90.000000),translate(-0.500000,-0.500000)" id="radialGradient-6">
            <stop stop-color="#2BC7A5" offset="0%"></stop>
            <stop stop-color="#13966C" offset="100%"></stop>
        </radialGradient>
    </defs>
    <g id="2017-iterations" stroke="none" stroke-width="1" fill="none" fill-rule="evenodd">
        <g id="AP-Case-Study" transform="translate(-720.000000, -426.000000)">
            <g id="Group-2-Copy" transform="translate(720.000000, 426.000000)">
                <g id="target">
                    <path d="M25.1714286,0.115612245 C24.6133673,0.115612245 24.1589796,0.570015306 24.1589796,1.12806122 L24.1589796,16.6454082 C24.1589796,17.2034694 24.6133827,17.6578571 25.1714286,17.6578571 C25.7294745,17.6578571 26.1838776,17.2034592 26.1838776,16.6454082 L26.1838776,1.12806122 C26.1858724,0.57 25.7294796,0.115612245 25.1714286,0.115612245 Z" id="Fill-1" fill="url(#radialGradient-1)"></path>
                    <path d="M48.7005102,23.6943878 L33.1831633,23.6943878 C32.625102,23.6943878 32.1707143,24.1487857 32.1707143,24.7068367 C32.1707143,25.2648878 32.6251122,25.7192857 33.1831633,25.7192857 L48.7005102,25.7192857 C49.2585714,25.7192857 49.7129592,25.2648878 49.7129592,24.7068367 C49.7129592,24.1487857 49.2585612,23.6943878 48.7005102,23.6943878 Z" id="Fill-2" fill="url(#radialGradient-2)"></path>
                    <path d="M25.1714286,31.3219388 C24.6133673,31.3219388 24.1589796,31.7763367 24.1589796,32.3343878 L24.1589796,47.8517337 C24.1589796,48.4097949 24.6133827,48.8641827 25.1714286,48.8641827 C25.7294745,48.8641827 26.1838776,48.4097796 26.1838776,47.8517337 L26.1858724,32.3343878 C26.1858724,31.7763265 25.7294796,31.3219388 25.1714337,31.3219388 L25.1714286,31.3219388 Z" id="Fill-3" fill="url(#radialGradient-3)"></path>
                    <path d="M16.8168367,23.6943878 L1.29948929,23.6943878 C0.741428061,23.6943878 0.287040306,24.1487857 0.287040306,24.7088265 C0.287040306,25.2668878 0.741438265,25.7212755 1.29948929,25.7212755 L16.8168367,25.7212755 C17.374898,25.7212755 17.8292857,25.2668776 17.8292857,24.7088265 C17.8312806,24.1487755 17.3768776,23.6943878 16.8168367,23.6943878 Z" id="Fill-4" fill="url(#radialGradient-4)"></path>
                    <path d="M40.0392857,9.76173469 C36.7030102,6.3477551 32.3882653,4.21326531 27.7408163,3.60765306 L27.7408163,5.65642857 C31.8543367,6.24632653 35.6408163,8.16362245 38.5964286,11.1727551 C41.5540306,14.1921429 43.3915306,18.0166327 43.8959184,22.1462245 L45.9287755,22.1462245 C45.424551,17.4906122 43.3757653,13.1538776 40.0394898,9.76204082 L40.0392857,9.76173469 Z M6.15867347,27.2760204 L4.11785663,27.2760204 C5.38341837,36.7964286 13.0346939,44.3321429 22.6107143,45.4183658 L22.6107143,43.377551 C14.1443878,42.3153061 7.39234694,35.6785714 6.15867347,27.2760204 Z M10.2721939,9.4505102 C6.76454082,12.8884184 4.6002551,17.3428571 4.07219337,22.1459184 L6.1130102,22.1459184 C6.63316327,17.884898 8.57234694,13.9428571 11.6854592,10.8933673 C14.6968367,7.95173469 18.5053571,6.11418367 22.6109694,5.6 L22.6109694,3.55918367 C17.9692857,4.08132653 13.6563776,6.13015306 10.2721939,9.4505102 Z M43.8420918,27.2760204 C42.6164286,35.5627551 36.0354592,42.1357143 27.7405612,43.3316327 L27.7405612,45.3804077 C37.1533163,44.1547449 44.6329082,36.6890816 45.8829031,27.2763265 L43.8420918,27.2760204 Z" id="Fill-5" fill="url(#radialGradient-5)"></path>
                    <path d="M27.7382653,12.244898 L27.7382653,13.0440816 C32.1686735,14.1003571 35.6306122,17.6678061 36.5372449,22.1461224 L37.3205102,22.1461224 C36.3997449,17.2334184 32.5971429,13.3231633 27.7383673,12.245102 L27.7382653,12.244898 Z M13.5622449,27.2739796 L12.7710204,27.2739796 C13.8571939,32.0930102 17.737551,35.8637755 22.6103061,36.802551 L22.6103061,36.0113265 C18.1639796,35.0965306 14.6322449,31.6666327 13.5623469,27.2740816 L13.5622449,27.2739796 Z M12.6773469,22.1459184 L13.4606122,22.1459184 C14.3913265,17.5520918 18.0165816,13.9127551 22.6085714,12.9663265 L22.6085714,12.175102 C17.5902551,13.1357143 13.6243878,17.1177041 12.677449,22.1460204 L12.6773469,22.1459184 Z M36.437551,27.2739796 C35.3971939,31.5489286 32.0211224,34.9168367 27.7380612,35.9336735 L27.7380612,36.7328571 C32.4494898,35.6845408 36.1645918,31.9756122 37.2288776,27.2741837 L36.437551,27.2739796 Z" id="Fill-6" fill="url(#radialGradient-6)"></path>
                </g>
            </g>
        </g>
    </g>
</svg>