<?xml version="1.0" encoding="UTF-8"?>
<svg width="16px" height="16px" viewBox="0 0 16 16" version="1.1" xmlns="http://www.w3.org/2000/svg" xmlns:xlink="http://www.w3.org/1999/xlink">
    <!-- Generator: Sketch 47.1 (45422) - http://www.bohemiancoding.com/sketch -->
    <title>download</title>
    <desc>Created with Sketch.</desc>
    <defs></defs>
    <g id="Page-1" stroke="none" stroke-width="1" fill="none" fill-rule="evenodd">
        <g id="download">
            <rect id="Rectangle" x="0" y="0" width="16" height="16"></rect>
            <path d="M7.99141415,2.62270486e-05 C7.67671538,0.00502305551 7.42482119,0.263465457 7.42911411,0.579029613 L7.42911411,10.6233128 L3.83694103,7.02866676 C3.61358108,6.80591129 3.25180628,6.80591129 3.02915878,7.02938137 C2.80651127,7.25213684 2.80651127,7.61408707 3.02915878,7.83684253 L7.59609974,12.405998 C7.59895499,12.4081401 7.60109415,12.4102821 7.6039494,12.4124223 C7.60965808,12.4181337 7.61608102,12.4238452 7.6217897,12.4288438 C7.62963753,12.4366973 7.63820146,12.4438361 7.64676538,12.4502622 C7.65175979,12.4545462 7.65746847,12.4588284 7.66317714,12.4623979 C7.67245351,12.4695385 7.68244415,12.4759628 7.69243479,12.4823888 C7.69957018,12.4873875 7.70741984,12.4923843 7.7152695,12.4966684 C7.7238316,12.5016652 7.7331098,12.5066638 7.7416719,12.5109461 C7.74952156,12.5152301 7.75808366,12.5187995 7.76593331,12.5223689 C7.77449542,12.526653 7.78377361,12.5302224 7.79233571,12.5337918 C7.80232635,12.5373631 7.81231699,12.5409325 7.82230581,12.5437873 C7.83015547,12.546644 7.83800512,12.5494988 7.84585478,12.5516408 C7.85584542,12.5544974 7.86583606,12.5566376 7.87582488,12.5587796 C7.8843888,12.5609217 7.89366517,12.5630637 7.90294154,12.5644911 C7.91221791,12.5659203 7.92149428,12.5673477 7.93005821,12.5687751 C7.94004885,12.5694897 7.94932522,12.5709171 7.95931586,12.5716318 C7.9693065,12.5723445 7.97929714,12.5723445 7.98928596,12.5723445 C7.99856233,12.5730592 8.0078387,12.5730592 8.01640263,12.5723445 C8.03281438,12.5723445 8.04922797,12.5709171 8.06492546,12.5694897 C8.06635217,12.5687751 8.06777888,12.5687751 8.06849315,12.5687751 C8.08062478,12.5673477 8.09204213,12.5652057 8.10345948,12.5630637 C8.11273585,12.5616363 8.12201222,12.5594942 8.13128859,12.5573522 C8.13842398,12.5559248 8.1455612,12.5537828 8.15269658,12.5516408 C8.16411394,12.548786 8.17553129,12.5452147 8.18694864,12.5409325 C8.19337159,12.5387905 8.20050698,12.5359339 8.20764236,12.5337918 C8.217633,12.5295096 8.22762364,12.5252256 8.23761246,12.5209415 C8.2525975,12.5138027 8.26687011,12.5066638 8.28114089,12.4988104 C8.28185516,12.4988104 8.28185516,12.4980976 8.2825676,12.4980976 C8.29398495,12.4916715 8.30468803,12.4845327 8.31467867,12.4773938 C8.32252833,12.4731098 8.32966555,12.468113 8.33751338,12.4624015 C8.349645,12.4531188 8.36248907,12.4431252 8.37390642,12.4331297 L8.37747411,12.4295584 C8.38603804,12.4224196 8.39531441,12.4145661 8.40387651,12.405998 L12.9708175,7.83684253 C13.1392225,7.67263805 13.1898845,7.4220546 13.0985493,7.20501971 C13.0064962,6.98798482 12.7909933,6.84948458 12.5555035,6.85663074 C12.4077922,6.86091478 12.2665075,6.92302605 12.1630389,7.02868869 L8.57086762,10.6233347 L8.57086762,0.579051545 C8.57300678,0.424842546 8.51235415,0.276354131 8.40317503,0.167114761 C8.29471018,0.0578827017 8.14556302,-0.00208655046 7.9914379,5.54696438e-05 L7.99141415,2.62270486e-05 Z M0.578720932,14.8576406 C0.426013387,14.8554985 0.278307556,14.914755 0.169833574,15.021845 C0.0606544563,15.1296479 0,15.2759998 0,15.4287921 C0,15.5815847 0.0606544563,15.7279256 0.169833574,15.8357394 C0.278298422,15.9428294 0.426002426,16.0020859 0.578720932,15.9999439 L15.4212791,15.9999439 C15.5739866,16.0020857 15.7216924,15.9428294 15.8301664,15.8357394 C15.9393455,15.7279366 16,15.5815847 16,15.4287921 C16,15.2759998 15.9393455,15.1296588 15.8301664,15.021845 C15.7217016,14.914755 15.5739976,14.8554985 15.4212791,14.8576406 L0.578720932,14.8576406 Z" fill="#13966C"></path>
        </g>
    </g>
</svg>