<?xml version="1.0" encoding="UTF-8"?>
<svg width="30px" height="30px" viewBox="0 0 30 30" version="1.1" xmlns="http://www.w3.org/2000/svg" xmlns:xlink="http://www.w3.org/1999/xlink">
    <!-- Generator: Sketch 47.1 (45422) - http://www.bohemiancoding.com/sketch -->
    <title>OBFavicon</title>
    <desc>Created with Sketch.</desc>
    <defs></defs>
    <g id="AccepTx-Pro" stroke="none" stroke-width="1" fill="none" fill-rule="evenodd">
        <g id="OBFavicon">
            <rect id="Path" x="0" y="0" width="30" height="30"></rect>
            <g id="O|B" transform="translate(0.000000, 5.000000)">
                <path d="M6.52876961,16.8817379 C5.56153964,16.8817379 4.67601468,16.6812354 3.87216816,16.2802243 C3.06832164,15.8792132 2.37885386,15.3467311 1.80374416,14.6827619 C1.22863445,14.0187928 0.784238158,13.2595127 0.470541954,12.4048989 C0.156845749,11.5502851 1.16869466e-16,10.6759626 0,9.78190515 C1.16869466e-16,8.84840395 0.166648609,7.95435987 0.499950826,7.0997461 C0.833253043,6.24513233 1.29398743,5.48913917 1.88216781,4.83174396 C2.4703482,4.17434875 3.16308359,3.6517274 3.96039478,3.26386423 C4.75770596,2.87600105 5.62035758,2.68207238 6.54837552,2.68207238 C7.51560548,2.68207238 8.40113044,2.88914876 9.20497697,3.30330774 C10.0088235,3.71746673 10.6950236,4.25980964 11.263598,4.93035275 C11.8321724,5.60089587 12.2733011,6.36017595 12.5869973,7.20821577 C12.9006935,8.05625559 13.0575392,8.92071732 13.0575392,9.8016269 C13.0575392,10.7351281 12.8908906,11.6291722 12.5575884,12.483786 C12.2242862,13.3383997 11.7668194,14.0911059 11.1851744,14.7419272 C10.6035293,15.3927485 9.91406154,15.9120829 9.11675035,16.2999461 C8.31943917,16.6878092 7.45678754,16.8817379 6.52876961,16.8817379 Z M1.37241403,9.78190515 C1.37241403,10.5444836 1.49658358,11.2774683 1.74492641,11.9808811 C1.99326924,12.684294 2.34617218,13.3088101 2.80364581,13.8544481 C3.26111944,14.4000861 3.80354432,14.8339605 4.43093673,15.1560841 C5.05832914,15.4782078 5.75759977,15.6392672 6.52876961,15.6392672 C7.31301012,15.6392672 8.02535123,15.468347 8.66581431,15.1265015 C9.3062774,14.784656 9.84870228,14.3376339 10.2931052,13.785422 C10.7375082,13.23321 11.0806083,12.6086939 11.3224158,11.911855 C11.5642232,11.2150161 11.6851252,10.5050399 11.6851252,9.78190515 C11.6851252,9.0193267 11.557688,8.28634204 11.3028098,7.58292916 C11.0479317,6.87951629 10.6917611,6.25828713 10.2342875,5.71922306 C9.77681386,5.18015899 9.23438898,4.74957158 8.60699657,4.42744793 C7.97960416,4.10532428 7.28686877,3.94426487 6.52876961,3.94426487 C5.7445291,3.94426487 5.03218798,4.11189813 4.3917249,4.44716969 C3.75126182,4.78244125 3.20883693,5.22617636 2.76443398,5.77838833 C2.32003102,6.33060031 1.97693094,6.95511639 1.73512345,7.65195532 C1.49331596,8.34879424 1.37241403,9.05877041 1.37241403,9.78190515 Z" id="Combined-Shape" fill="#2F4852"></path>
                <path d="M29.9959873,13.21593 C29.9959873,13.792673 29.879318,14.3090514 29.6459757,14.7650807 C29.4126335,15.22111 29.0992928,15.6067173 28.7059445,15.921914 C28.3125961,16.2371107 27.849252,16.4785344 27.3158983,16.6461922 C26.7825445,16.8138501 26.2158647,16.8976777 25.6158418,16.8976777 L18.8356164,16.8976777 L18.8356164,2.61330129 L26.1558597,2.61330129 C26.6492119,2.61330129 27.095889,2.7206007 27.4959043,2.93520273 C27.8959195,3.14980476 28.2359274,3.4281126 28.5159382,3.77013459 C28.7959489,4.11215658 29.0126206,4.50111694 29.1659598,4.93702732 C29.3192989,5.3729377 29.3959674,5.81219465 29.3959674,6.25481134 C29.3959674,6.95226795 29.2192966,7.60612371 28.8659498,8.21639825 C28.5126029,8.82667278 28.0092579,9.27934216 27.3558996,9.57441995 C28.169264,9.81584724 28.8126123,10.2551042 29.2859637,10.892204 C29.7593152,11.5293038 29.9959873,12.3038714 29.9959873,13.21593 L29.9959873,13.21593 Z M27.6959109,12.7934344 C27.6959109,12.4983566 27.6459097,12.2166956 27.5459059,11.9484431 C27.4459021,11.6801905 27.3125657,11.4454731 27.1458926,11.2442837 C26.9792196,11.0430943 26.7758815,10.8821452 26.5358723,10.7614315 C26.2958632,10.6407179 26.0358571,10.580362 25.7558464,10.580362 L21.0756909,10.580362 L21.0756909,14.9461502 L25.6158418,14.9461502 C25.9091863,14.9461502 26.182526,14.8891474 26.435869,14.7751401 C26.689212,14.6611328 26.9092172,14.5068899 27.095891,14.3124068 C27.2825648,14.1179237 27.4292348,13.8899125 27.5359056,13.6283662 C27.6425763,13.36682 27.6959109,13.0885122 27.6959109,12.7934344 L27.6959109,12.7934344 Z M21.0756909,4.56482878 L21.0756909,8.76966635 L25.1958278,8.76966635 C25.4758385,8.76966635 25.7325111,8.71601665 25.9658534,8.60871563 C26.1991957,8.50141461 26.4058671,8.35723103 26.585874,8.17616057 C26.7658809,7.9950901 26.9058841,7.77713818 27.005888,7.52229827 C27.1058918,7.26745835 27.155893,6.98579741 27.155893,6.67730698 C27.155893,6.06032614 26.9825556,5.55400706 26.6358757,5.15833456 C26.2891957,4.76266206 25.8491855,4.56482878 25.3158318,4.56482878 L21.0756909,4.56482878 Z" id="Banc" fill="#2F4852"></path>
                <rect id="divider" fill="#27A3EC" x="15.1631284" y="0.0661803949" width="1.05266656" height="19.1923145"></rect>
            </g>
        </g>
    </g>
</svg>