<?xml version="1.0" encoding="UTF-8"?>
<svg width="30px" height="30px" viewBox="0 0 30 30" version="1.1" xmlns="http://www.w3.org/2000/svg" xmlns:xlink="http://www.w3.org/1999/xlink">
    <!-- Generator: Sketch 47.1 (45422) - http://www.bohemiancoding.com/sketch -->
    <title>apTooltip</title>
    <desc>Created with Sketch.</desc>
    <defs></defs>
    <g id="Symbols" stroke="none" stroke-width="1" fill="none" fill-rule="evenodd">
        <g id="apTooltip" fill="#00AEEF">
            <path d="M15,0 C6.69955556,0 0,6.69955556 0,15 C0,23.3004444 6.69955556,30 15,30 C23.3004444,30 30,23.3004444 30,15 C30,6.69955556 23.3004444,0 15,0 Z M15,23.3333333 C14,23.3333333 13.1995556,22.5328889 13.1995556,21.5328889 C13.1995556,20.5328889 14,19.7324444 15,19.7324444 L15,19.7324444 C16,19.7324444 16.8004444,20.5328889 16.8004444,21.5328889 C16.8004444,22.5328889 16,23.3333333 15,23.3333333 Z M19.0657778,13.1995556 C18.8662222,13.4671111 18.632,13.7324444 18.3991111,13.9671111 C18.2324444,14.1337778 18.0328889,14.3004444 17.7986667,14.5675556 C17.5311111,14.8004444 17.3315556,15.0017778 17.1648889,15.2013333 C16.9982222,15.368 16.8315556,15.5346667 16.7311111,15.6684444 C16.4306667,16.0675556 16.2968889,16.6022222 16.3315556,17.1022222 L16.3315556,18.1355556 L13.7311111,18.1355556 L13.7311111,16.736 C13.6977778,16.2688889 13.764,15.8022222 13.9635556,15.3368889 C14.2311111,14.9026667 14.5293333,14.5035556 14.9306667,14.1373333 L16.5973333,12.4706667 C16.9635556,12.0711111 17.1302222,11.5711111 17.1302222,11.0364444 C17.1302222,10.5035556 16.9306667,10.0035556 16.5644444,9.63733333 C16.1977778,9.27066667 15.6648889,9.07111111 15.1302222,9.07111111 C14.5973333,9.03822222 14.0644444,9.23777778 13.6631111,9.604 C13.264,9.97066667 13.0293333,10.5035556 12.9964444,11.0382222 L10.196,11.0382222 C10.2968889,9.80533333 10.8626667,8.63911111 11.7968889,7.83866667 C12.764,7.03822222 13.9635556,6.63911111 15.2311111,6.672 C16.4306667,6.60577778 17.6302222,7.00533333 18.5644444,7.77244444 C19.4306667,8.50533333 19.8644444,9.57288889 19.8644444,10.9062222 C19.8333333,11.7324444 19.5657778,12.5657778 19.0657778,13.1995556 Z" id="question"></path>
        </g>
    </g>
</svg>