<?xml version="1.0" encoding="UTF-8"?>
<svg width="31px" height="30px" viewBox="0 0 31 30" version="1.1" xmlns="http://www.w3.org/2000/svg" xmlns:xlink="http://www.w3.org/1999/xlink">
    <!-- Generator: Sketch 45.2 (43514) - http://www.bohemiancoding.com/sketch -->
    <title>instagram</title>
    <desc>Created with Sketch.</desc>
    <defs></defs>
    <g id="2017-iterations" stroke="none" stroke-width="1" fill="none" fill-rule="evenodd" opacity="0.250679348">
        <g id="AP-Case-Study-Copy" transform="translate(-652.000000, -949.000000)" fill="#000000">
            <g id="icons" transform="translate(598.000000, 949.000000)">
                <g id="instagram" transform="translate(54.831758, 0.000000)">
                    <path d="M14.8777221,0.00940678756 C10.8371539,0.00940678756 10.3305031,0.0265638215 8.74363895,0.0990966614 C7.16008204,0.171452015 6.07856949,0.423423765 5.13223862,0.791885859 C4.1538988,1.17271285 3.32420569,1.68233592 2.49705204,2.51090233 C1.66995744,3.33952791 1.16123963,4.17069746 0.781089122,5.15077823 C0.413281542,6.0987931 0.16175738,7.18223021 0.0895305541,8.76860506 C0.0171265572,10.358293 0,10.8658454 0,14.9136038 C0,18.9613031 0.0171265572,19.4688555 0.0895305541,21.0585434 C0.16175738,22.6449183 0.413281542,23.7283554 0.781089122,24.6763703 C1.16123963,25.656451 1.66995744,26.4876206 2.49705204,27.3162462 C3.32420569,28.1448126 4.1538988,28.6544356 5.13223862,29.0353218 C6.07856949,29.4037247 7.16008204,29.6556965 8.74363895,29.7280518 C10.3305031,29.8005847 10.8371539,29.8177417 14.8777221,29.8177417 C18.9182313,29.8177417 19.4248821,29.8005847 21.0117462,29.7280518 C22.5953031,29.6556965 23.6768157,29.4037247 24.6231465,29.0353218 C25.6014864,28.6544356 26.4311795,28.1448126 27.2583331,27.3162462 C28.0854277,26.4876206 28.5941455,25.656451 28.9743551,24.6763703 C29.3421036,23.7283554 29.5936278,22.6449183 29.6658546,21.0585434 C29.7382586,19.4688555 29.7553852,18.9613031 29.7553852,14.9136038 C29.7553852,10.8658454 29.7382586,10.358293 29.6658546,8.76860506 C29.5936278,7.18223021 29.3421036,6.0987931 28.9743551,5.15077823 C28.5941455,4.17069746 28.0854277,3.33952791 27.2583331,2.51090233 C26.4311795,1.68233592 25.6014864,1.17271285 24.6231465,0.791885859 C23.6768157,0.423423765 22.5953031,0.171452015 21.0117462,0.0990966614 C19.4248821,0.0265638215 18.9182313,0.00940678756 14.8777221,0.00940678756 Z M14.8777221,2.69483757 C18.8501975,2.69483757 19.3207644,2.71004225 20.8895571,2.78174682 C22.3401174,2.84800847 23.12788,3.09081008 23.6521298,3.29491962 C24.3465822,3.56529081 24.8421893,3.88825718 25.3627776,4.40983101 C25.8834249,4.93134568 26.2058176,5.42783475 26.4757085,6.12352289 C26.6794555,6.64870562 26.9218258,7.43787002 26.9879697,8.89101163 C27.0595469,10.4625959 27.0747246,10.9340002 27.0747246,14.9136038 C27.0747246,18.8931483 27.0595469,19.3645526 26.9879697,20.9361369 C26.9218258,22.3892785 26.6794555,23.1784429 26.4757085,23.7036256 C26.2058176,24.3993137 25.8834249,24.8958028 25.3627776,25.4173175 C24.8421893,25.9388913 24.3465822,26.2618577 23.6521298,26.5322289 C23.12788,26.7363384 22.3401174,26.97914 20.8895571,27.0454017 C19.3210007,27.1171062 18.8504928,27.1323109 14.8777221,27.1323109 C10.9048924,27.1323109 10.4344435,27.1171062 8.86582808,27.0454017 C7.41526775,26.97914 6.62750517,26.7363384 6.10325535,26.5322289 C5.40880299,26.2618577 4.91319586,25.9388913 4.39260757,25.4173175 C3.87201929,24.8958028 3.54956756,24.3993137 3.27967664,23.7036256 C3.07592967,23.1784429 2.83355936,22.3892785 2.76741541,20.9361369 C2.69583821,19.3645526 2.68066054,18.8931483 2.68066054,14.9136038 C2.68066054,10.9340002 2.69583821,10.4625959 2.76741541,8.89101163 C2.83355936,7.43787002 3.07592967,6.64870562 3.27967664,6.12352289 C3.54956756,5.42783475 3.87196024,4.93134568 4.39260757,4.40983101 C4.91319586,3.88825718 5.40880299,3.56529081 6.10325535,3.29491962 C6.62750517,3.09081008 7.41526775,2.84800847 8.86582808,2.78174682 C10.4346207,2.71004225 10.9051876,2.69483757 14.8777221,2.69483757 L14.8777221,2.69483757 Z" id="Fill-1"></path>
                    <path d="M14.8777221,19.8816301 C12.1387722,19.8816301 9.91846172,17.6573685 9.91846172,14.9136038 C9.91846172,12.16978 12.1387722,9.94551843 14.8777221,9.94551843 C17.6166129,9.94551843 19.8369234,12.16978 19.8369234,14.9136038 C19.8369234,17.6573685 17.6166129,19.8816301 14.8777221,19.8816301 Z M14.8777221,7.26008765 C10.6582699,7.26008765 7.23780118,10.6866431 7.23780118,14.9136038 C7.23780118,19.1405054 10.6582699,22.5670609 14.8777221,22.5670609 C19.0971152,22.5670609 22.517584,19.1405054 22.517584,14.9136038 C22.517584,10.6866431 19.0971152,7.26008765 14.8777221,7.26008765 L14.8777221,7.26008765 Z" id="Fill-4"></path>
                    <path d="M24.6047798,6.95770971 C24.6047798,7.94548157 23.805442,8.74618259 22.8194248,8.74618259 C21.8334666,8.74618259 21.0341288,7.94548157 21.0341288,6.95770971 C21.0341288,5.96993786 21.8334666,5.16917767 22.8194248,5.16917767 C23.805442,5.16917767 24.6047798,5.96993786 24.6047798,6.95770971" id="Fill-5"></path>
                </g>
            </g>
        </g>
    </g>
</svg>