<?xml version="1.0" encoding="UTF-8"?>
<svg width="50px" height="50px" viewBox="0 0 50 50" version="1.1" xmlns="http://www.w3.org/2000/svg" xmlns:xlink="http://www.w3.org/1999/xlink">
    <!-- Generator: Sketch 46 (44423) - http://www.bohemiancoding.com/sketch -->
    <title>desktop</title>
    <desc>Created with Sketch.</desc>
    <defs>
        <linearGradient x1="50%" y1="100%" x2="50%" y2="3.061617e-15%" id="linearGradient-1">
            <stop stop-color="#1C91A7" offset="0%"></stop>
            <stop stop-color="#0C586E" offset="100%"></stop>
        </linearGradient>
        <linearGradient x1="50%" y1="259.859416%" x2="50%" y2="3.63373587e-15%" id="linearGradient-2">
            <stop stop-color="#F2C1B1" offset="0%"></stop>
            <stop stop-color="#E08E79" offset="100%"></stop>
        </linearGradient>
        <linearGradient x1="118.611236%" y1="120.520381%" x2="0%" y2="0%" id="linearGradient-3">
            <stop stop-color="#E4F2F0" offset="0%"></stop>
            <stop stop-color="#C5E0DC" offset="100%"></stop>
        </linearGradient>
    </defs>
    <g id="2017-iterations" stroke="none" stroke-width="1" fill="none" fill-rule="evenodd">
        <g id="AP-Case-Study" transform="translate(-300.000000, -576.000000)">
            <g id="Group-12" transform="translate(300.000000, 576.000000)">
                <g id="desktop">
                    <path d="M48.6111111,36.1111111 L35.2972222,36.1111111 L33.9083333,34.7222222 L45.8333333,34.7222222 C46.6015556,34.7222222 47.2222222,34.1015556 47.2222222,33.3333333 L47.2222222,1.38888889 C47.2222222,0.620666667 46.6015556,0 45.8333333,0 L4.16666667,0 C3.39844444,0 2.77777778,0.620666667 2.77777778,1.38888889 L2.77777778,33.3333333 C2.77777778,34.1015556 3.39844444,34.7222222 4.16666667,34.7222222 L14.7027778,34.7222222 L13.3138889,36.1111111 L1.38888889,36.1111111 C0.620666667,36.1111111 0,36.7317778 0,37.5 L0,48.6111111 C0,49.3793333 0.620666667,50 1.38888889,50 L48.6111111,50 C49.3793333,50 50,49.3793333 50,48.6111111 L50,37.5 C50,36.7317778 49.3793333,36.1111111 48.6111111,36.1111111 Z M5.55555556,2.77777778 L44.4444444,2.77777778 L44.4444444,31.9444444 L5.55555556,31.9444444 L5.55555556,2.77777778 Z M18.6305556,34.7222222 L29.9805556,34.7222222 L31.3694444,36.1111111 L17.2416667,36.1111111 L18.6305556,34.7222222 Z M47.2222222,47.2222222 L2.77777778,47.2222222 L2.77777778,38.8888889 L47.2222222,38.8888889 L47.2222222,47.2222222 Z" id="Fill-1" fill="url(#linearGradient-1)"></path>
                    <path d="M29.1666667,41.6666667 C29.1666667,42.4348889 29.7873333,43.0555556 30.5555556,43.0555556 L44.4444444,43.0555556 C45.2126667,43.0555556 45.8333333,42.4348889 45.8333333,41.6666667 C45.8333333,40.8984444 45.2126667,40.2777778 44.4444444,40.2777778 L30.5555556,40.2777778 C29.7873333,40.2777778 29.1666667,40.8984444 29.1666667,41.6666667 Z" id="Fill-2" fill="url(#linearGradient-2)"></path>
                    <path d="M5.55555556,40.2777778 C4.78733333,40.2777778 4.16666667,40.8984444 4.16666667,41.6666667 L4.16666667,44.4444444 C4.16666667,45.2126667 4.78733333,45.8333333 5.55555556,45.8333333 C6.32377778,45.8333333 6.94444444,45.2126667 6.94444444,44.4444444 L6.94444444,41.6666667 C6.94444444,40.8984444 6.32377778,40.2777778 5.55555556,40.2777778 Z" id="Fill-3" fill="url(#linearGradient-2)"></path>
                    <path d="M9.72222222,40.2777778 C8.954,40.2777778 8.33333333,40.8984444 8.33333333,41.6666667 L8.33333333,44.4444444 C8.33333333,45.2126667 8.954,45.8333333 9.72222222,45.8333333 C10.4904444,45.8333333 11.1111111,45.2126667 11.1111111,44.4444444 L11.1111111,41.6666667 C11.1111111,40.8984444 10.4904444,40.2777778 9.72222222,40.2777778 Z" id="Fill-4" fill="url(#linearGradient-2)"></path>
                    <path d="M13.8888889,40.2777778 C13.1206667,40.2777778 12.5,40.8984444 12.5,41.6666667 L12.5,44.4444444 C12.5,45.2126667 13.1206667,45.8333333 13.8888889,45.8333333 C14.6571111,45.8333333 15.2777778,45.2126667 15.2777778,44.4444444 L15.2777778,41.6666667 C15.2777778,40.8984444 14.6571111,40.2777778 13.8888889,40.2777778 Z" id="Fill-5" fill="url(#linearGradient-2)"></path>
                    <path d="M39,28 L11,28 L11,28 C9.8954305,28 9,27.1045695 9,26 L9,8 L9,8 C9,6.8954305 9.8954305,6 11,6 L39,6 L39,6 C40.1045695,6 41,6.8954305 41,8 L41,26 L41,26 C41,27.1045695 40.1045695,28 39,28 Z" id="Fill-6" fill="url(#linearGradient-3)"></path>
                </g>
            </g>
        </g>
    </g>
</svg>