<?xml version="1.0" encoding="UTF-8"?>
<svg width="50px" height="48px" viewBox="0 0 50 48" version="1.1" xmlns="http://www.w3.org/2000/svg" xmlns:xlink="http://www.w3.org/1999/xlink">
    <!-- Generator: Sketch 46 (44423) - http://www.bohemiancoding.com/sketch -->
    <title>confusion</title>
    <desc>Created with Sketch.</desc>
    <defs>
        <linearGradient x1="128.825343%" y1="100%" x2="0%" y2="-12.5485795%" id="linearGradient-1">
            <stop stop-color="#F2C1B1" offset="0%"></stop>
            <stop stop-color="#E08E79" offset="100%"></stop>
        </linearGradient>
    </defs>
    <g id="2017-iterations" stroke="none" stroke-width="1" fill="none" fill-rule="evenodd">
        <g id="AP-Case-Study" transform="translate(-300.000000, -656.000000)" fill="url(#linearGradient-1)">
            <g id="Group-15" transform="translate(300.000000, 656.000000)">
                <path d="M28.1671429,22.3744 L32.9997143,22.3744 C32.9997143,19.1656857 37.8322857,17.5418286 37.8322857,13.4986857 C37.8322857,8.66611429 34.6235714,6.25011429 30.5837143,6.25011429 C25.7511429,6.25011429 22.5422857,10.2931143 23.3351429,14.3329714 L28.1677143,14.3329714 C28.1677143,11.8748286 28.9601429,11.0824 30.584,11.0824 C32.2078571,11.0824 33.0002857,11.8748286 33.0002857,13.4986857 C33.0002857,15.9149714 28.1677143,16.7492571 28.1677143,22.3744 L28.1671429,22.3744 Z M17.2071429,31.5401143 C19.1658571,31.5401143 20.5832857,30.1645429 20.5832857,28.2058286 C20.5832857,26.2471143 19.1658571,24.8296857 17.2071429,24.8296857 C15.2484286,24.8296857 13.831,26.2471143 13.831,28.2058286 C13.831,30.1645429 15.2484286,31.5401143 17.2071429,31.5401143 Z M30.5835714,31.2471429 C32.4585714,31.2471429 33.8341429,29.8715714 33.8341429,28.0384286 C33.8341429,26.1634286 32.4585714,24.7878571 30.5835714,24.7878571 C28.7085714,24.7878571 27.3748571,26.1634286 27.3748571,28.0384286 C27.3748571,29.8715714 28.7085714,31.2471429 30.5835714,31.2471429 Z M17.2071429,22.2485714 C19.2495714,22.2485714 19.0821429,22.2485714 19.2495714,20.1642857 L20.2484286,8.62142857 C20.4158429,6.53714286 20.2484286,6.53714286 18.206,6.53714286 L16.2054286,6.53714286 C14.163,6.53714286 13.9984286,6.53714286 14.163,8.62142857 L15.1618571,20.1642857 C15.3292714,22.2485714 15.1618571,22.2485714 17.2042857,22.2485714 L17.2071429,22.2485714 Z M0,47.9157143 L0,6.25 C0,2.207 2.207,1.13686838e-13 6.25,1.13686838e-13 L43.75,1.13686838e-13 C47.793,1.13686838e-13 50,2.207 50,6.25 L50,31.25 C50,35.293 47.793,37.5 43.75,37.5 L10.4157143,37.5 L0,47.9157143 Z" id="confusion"></path>
            </g>
        </g>
    </g>
</svg>