<?xml version="1.0" encoding="UTF-8"?>
<svg width="75px" height="80px" viewBox="0 0 75 80" version="1.1" xmlns="http://www.w3.org/2000/svg" xmlns:xlink="http://www.w3.org/1999/xlink">
    <!-- Generator: Sketch 45.2 (43514) - http://www.bohemiancoding.com/sketch -->
    <title>logo</title>
    <desc>Created with Sketch.</desc>
    <defs>
        <linearGradient x1="0%" y1="3.06045101%" x2="97.8515625%" y2="103.392737%" id="linearGradient-1">
            <stop stop-color="#0C586E" offset="0%"></stop>
            <stop stop-color="#13966C" stop-opacity="0.5" offset="100%"></stop>
        </linearGradient>
    </defs>
    <g id="2017-iterations" stroke="none" stroke-width="1" fill="none" fill-rule="evenodd">
        <g id="AP-Case-Study-Copy" transform="translate(-670.000000, -30.000000)" fill="url(#linearGradient-1)">
            <path d="M671.458436,67.9639126 C672.26002,67.9639126 672.913162,67.314039 672.913162,66.5104915 C672.913162,65.9485638 672.588446,65.4662502 672.119,65.2237048 C672.6905,49.8294766 683.161183,36.9180989 697.352177,32.6568907 C689.390153,37.0301142 683.825458,46.3533009 683.604651,57.1900821 C683.11665,57.3696768 682.768741,57.8334755 682.768741,58.3842943 C682.768741,59.0878611 683.34024,59.6608978 684.047192,59.6608978 C684.753216,59.6608978 685.324715,59.0878611 685.324715,58.3842943 C685.324715,57.8880945 685.039894,57.4641029 684.627969,57.2521071 C684.868258,44.6138244 692.608548,34.1038315 702.839869,31.5932086 C701.735836,32.2014237 700.680975,33.0336692 699.698478,34.0806878 C696.143308,37.8716172 694.000186,43.234463 693.94452,49.5721193 C693.361888,49.7674517 692.937902,50.3099387 692.937902,50.9561094 C692.937902,51.762434 693.597538,52.4215651 694.406544,52.4215651 C695.216477,52.4215651 695.87333,51.762434 695.87333,50.9561094 C695.87333,50.2858693 695.418728,49.7239416 694.802697,49.5508271 C694.862073,43.4353499 696.914275,38.2993118 700.327499,34.6657592 C702.333313,32.5263605 704.645287,31.351589 707.036121,31.2479054 L707.036121,43.9130347 C706.511009,44.1370652 706.142689,44.6573344 706.142689,45.259995 C706.142689,46.0690969 706.80047,46.7254507 707.609476,46.7254507 C708.417553,46.7254507 709.075334,46.0690969 709.075334,45.259995 C709.075334,44.6573344 708.707942,44.1370652 708.184686,43.9130347 L708.184686,31.2812323 C710.448417,31.504337 712.652771,32.6698511 714.592714,34.6907543 C718.073664,38.3113465 720.215858,43.2881563 720.303996,49.2629202 C719.771462,49.4823219 719.392937,50.0062941 719.392937,50.6172864 C719.392937,51.4254625 720.052573,52.0818163 720.860651,52.0818163 C721.668728,52.0818163 722.33022,51.4254625 722.33022,50.6172864 C722.33022,49.9127938 721.826447,49.3221679 721.161244,49.1842318 C721.05548,43.0307989 718.823293,37.8558795 715.211529,34.1001285 C714.134401,32.9781245 712.976559,32.1023689 711.768617,31.4830449 C722.233733,33.7659342 730.217095,44.3805364 730.479651,57.2002653 C730.011133,57.3881917 729.675285,57.8464359 729.675285,58.3842943 C729.675285,59.0878611 730.249567,59.6608978 730.953736,59.6608978 C731.657905,59.6608978 732.232187,59.0878611 732.232187,58.3842943 C732.232187,57.8760598 731.931593,57.4428107 731.505752,57.2345179 C731.300717,46.3792218 725.729527,37.0356686 717.754515,32.6568907 C731.930666,36.9134702 742.397637,49.7998528 742.988619,65.1690858 C742.461653,65.390339 742.091477,65.9087567 742.091477,66.5104915 C742.091477,67.3131132 742.743691,67.9620611 743.54713,67.9620611 C744.347786,67.9620611 745,67.3131132 745,66.5104915 C745,65.9309746 744.653018,65.4292204 744.157595,65.1987096 C743.441366,45.6682489 727.30115,30 707.55381,30 C687.82688,30 671.694087,45.6441795 670.955591,65.1533481 C670.398936,65.3570122 670,65.8874646 670,66.5104915 C670,67.314039 670.653142,67.9639126 671.458436,67.9639126 L671.458436,67.9639126 Z M695.384401,50.9561094 C695.384401,51.4948935 694.947427,51.9327713 694.406544,51.9327713 C693.867516,51.9327713 693.427759,51.4948935 693.427759,50.9561094 C693.427759,50.4173253 693.867516,49.9794475 694.406544,49.9794475 C694.947427,49.9794475 695.384401,50.4173253 695.384401,50.9561094 L695.384401,50.9561094 Z M721.840364,50.6172864 C721.840364,51.1569962 721.402462,51.594874 720.860651,51.594874 C720.317912,51.594874 719.881865,51.1569962 719.881865,50.6172864 C719.881865,50.0785023 720.317912,49.6415502 720.860651,49.6415502 C721.402462,49.6415502 721.840364,50.0785023 721.840364,50.6172864 L721.840364,50.6172864 Z M708.588261,45.259995 C708.588261,45.7997048 708.148503,46.2375826 707.609476,46.2375826 C707.06952,46.2375826 706.632546,45.7997048 706.632546,45.259995 C706.632546,44.7230624 707.076942,44.3342491 707.61597,44.3342491 C708.154998,44.3342491 708.588261,44.7230624 708.588261,45.259995 Z M743.544347,71.6511584 C744.347786,71.6511584 745,72.3038092 745,73.1055052 C745,73.7313094 744.601992,74.260836 744.044409,74.4654258 C743.306841,93.9745944 727.174048,109.614145 707.447118,109.614145 C687.701633,109.614145 671.559562,93.9477478 670.84426,74.4200643 C670.346982,74.1867763 670,73.6859478 670,73.1055052 C670,72.3038092 670.652214,71.6530099 671.455653,71.6530099 C672.257237,71.6530099 672.910379,72.3038092 672.910379,73.1055052 C672.910379,73.70724 672.538347,74.2275092 672.011381,74.4459852 C672.604218,89.8189212 683.070262,102.705304 697.24734,106.95818 C689.273256,102.580328 683.701138,93.2377007 683.496103,82.3805531 C683.067479,82.173186 682.768741,81.7399369 682.768741,81.2317024 C682.768741,80.5299871 683.342095,79.9550989 684.046264,79.9550989 C684.752288,79.9550989 685.323788,80.5299871 685.323788,81.2317024 C685.323788,81.7695608 684.99165,82.227805 684.520349,82.4148057 C684.785688,95.2373118 692.768122,105.85284 703.235094,108.134803 C702.026225,107.514554 700.868382,106.637872 699.788471,105.514942 C696.178563,101.760117 693.94452,96.5851978 693.839683,90.4317649 C693.173553,90.2938288 692.672563,89.7022772 692.672563,88.9977846 C692.672563,88.1923857 693.330344,87.5332546 694.142133,87.5332546 C694.949283,87.5332546 695.608919,88.1923857 695.608919,88.9977846 C695.608919,89.6115541 695.230393,90.1336748 694.696004,90.3540023 C694.783214,96.3259889 696.927264,101.305576 700.406358,104.926168 C702.577313,107.184988 705.073911,108.3792 707.617825,108.3792 C710.132051,108.3792 712.571128,107.19332 714.673429,104.952089 C718.085725,101.316685 720.137927,96.1806468 720.198231,90.0651696 C719.581272,89.8892779 719.12667,89.3310531 719.12667,88.6608131 C719.12667,87.8535627 719.783523,87.1944316 720.592528,87.1944316 C721.405245,87.1944316 722.063026,87.8535627 722.063026,88.6608131 C722.063026,89.3069837 721.639968,89.848545 721.05548,90.0429517 C720.998887,96.3796822 718.85762,101.746231 715.301522,105.535309 C714.318097,106.582327 713.263236,107.413647 712.161059,108.022788 C722.404441,105.510314 730.15308,94.9743999 730.373887,82.3138994 C730.012061,82.0898689 729.767133,81.6917981 729.767133,81.2317024 C729.767133,80.5299871 730.33956,79.9550989 731.045584,79.9550989 C731.753464,79.9550989 732.324963,80.5299871 732.324963,81.2317024 C732.324963,81.8176996 731.930666,82.3027904 731.396277,82.453687 C731.166192,93.2784335 725.602425,102.591437 717.64504,106.95818 C731.839745,102.698824 742.311356,89.7865201 742.882855,74.3922919 C742.411554,74.151598 742.087766,73.6683586 742.087766,73.1055052 C742.087766,72.3038092 742.740908,71.6511584 743.544347,71.6511584 Z" id="logo"></path>
        </g>
    </g>
</svg>