<?xml version="1.0" encoding="UTF-8"?>
<svg width="30px" height="30px" viewBox="0 0 30 30" version="1.1" xmlns="http://www.w3.org/2000/svg" xmlns:xlink="http://www.w3.org/1999/xlink">
    <!-- Generator: Sketch 46.2 (44496) - http://www.bohemiancoding.com/sketch -->
    <title>apCalendar</title>
    <desc>Created with Sketch.</desc>
    <defs></defs>
    <g id="AccepTx-Pro" stroke="none" stroke-width="1" fill="none" fill-rule="evenodd">
        <g id="apCalendar">
            <g id="Icon/Calendar/Black">
                <rect id="Icon-Bounding-Box" x="0" y="0" width="30" height="30"></rect>
                <g id="calendar" opacity="0.700000048" transform="translate(3.000000, 1.000000)" fill="#000000">
                    <path d="M0.179104478,8.59701493 L0.179104478,24.6913433 C0.179104478,25.8917015 1.14197015,26.8656716 2.32835821,26.8656716 L21.6716418,26.8656716 C22.8580299,26.8656716 23.8208955,25.8917015 23.8208955,24.6913433 L23.8208955,8.59701493 L0.179104478,8.59701493 Z M6.08955224,25.2537313 L1.79104478,25.2537313 L1.79104478,20.9552239 L6.08955224,20.9552239 L6.08955224,25.2537313 Z M6.08955224,19.880597 L1.79104478,19.880597 L1.79104478,15.5820896 L6.08955224,15.5820896 L6.08955224,19.880597 Z M6.08955224,14.5074627 L1.79104478,14.5074627 L1.79104478,10.2089552 L6.08955224,10.2089552 L6.08955224,14.5074627 Z M11.4626866,25.2537313 L7.1641791,25.2537313 L7.1641791,20.9552239 L11.4626866,20.9552239 L11.4626866,25.2537313 Z M11.4626866,19.880597 L7.1641791,19.880597 L7.1641791,15.5820896 L11.4626866,15.5820896 L11.4626866,19.880597 Z M11.4626866,14.5074627 L7.1641791,14.5074627 L7.1641791,10.2089552 L11.4626866,10.2089552 L11.4626866,14.5074627 Z M16.8358209,25.2537313 L12.5373134,25.2537313 L12.5373134,20.9552239 L16.8358209,20.9552239 L16.8358209,25.2537313 Z M16.8358209,19.880597 L12.5373134,19.880597 L12.5373134,15.5820896 L16.8358209,15.5820896 L16.8358209,19.880597 Z M16.8358209,14.5074627 L12.5373134,14.5074627 L12.5373134,10.2089552 L16.8358209,10.2089552 L16.8358209,14.5074627 Z M22.2089552,25.2537313 L17.9104478,25.2537313 L17.9104478,20.9552239 L22.2089552,20.9552239 L22.2089552,25.2537313 Z M22.2089552,19.880597 L17.9104478,19.880597 L17.9104478,15.5820896 L22.2089552,15.5820896 L22.2089552,19.880597 Z M22.2089552,14.5074627 L17.9104478,14.5074627 L17.9104478,10.2089552 L22.2089552,10.2089552 L22.2089552,14.5074627 Z" id="Fill-1"></path>
                    <path d="M21.6716418,3.2238806 L18.1791045,3.2238806 L18.1791045,0.805970149 C18.1791045,0.361074627 17.8180299,0 17.3731343,0 C16.9282388,0 16.5671642,0.361074627 16.5671642,0.805970149 L16.5671642,3.2238806 L7.43283582,3.2238806 L7.43283582,0.805970149 C7.43283582,0.361074627 7.07176119,0 6.62686567,0 C6.18197015,0 5.82089552,0.361074627 5.82089552,0.805970149 L5.82089552,3.2238806 L2.32835821,3.2238806 C1.14197015,3.2238806 0.179104478,4.19785075 0.179104478,5.39820896 L0.179104478,7.52238806 L23.8208955,7.52238806 L23.8208955,5.39820896 C23.8208955,4.19785075 22.8580299,3.2238806 21.6716418,3.2238806 Z M6.62686567,6.98507463 C5.73707463,6.98507463 5.01492537,6.26292537 5.01492537,5.37313433 C5.01492537,4.77707463 5.33946269,4.25802985 5.82089552,3.97934328 L5.82089552,5.37313433 C5.82089552,5.81802985 6.18197015,6.17910448 6.62686567,6.17910448 C7.07176119,6.17910448 7.43283582,5.81802985 7.43283582,5.37313433 L7.43283582,3.97791045 C7.91426866,4.25659701 8.23880597,4.77707463 8.23880597,5.37313433 C8.23880597,6.26292537 7.51665672,6.98507463 6.62686567,6.98507463 Z M17.3731343,6.98507463 C16.4833433,6.98507463 15.761194,6.26292537 15.761194,5.37313433 C15.761194,4.77707463 16.0857313,4.25802985 16.5671642,3.97934328 L16.5671642,5.37313433 C16.5671642,5.81802985 16.9282388,6.17910448 17.3731343,6.17910448 C17.8180299,6.17910448 18.1791045,5.81802985 18.1791045,5.37313433 L18.1791045,3.97791045 C18.6605373,4.25659701 18.9850746,4.77707463 18.9850746,5.37313433 C18.9850746,6.26292537 18.2629254,6.98507463 17.3731343,6.98507463 Z" id="Fill-2"></path>
                </g>
            </g>
        </g>
    </g>
</svg>