<?xml version="1.0" encoding="UTF-8"?>
<svg width="30px" height="27px" viewBox="0 0 30 27" version="1.1" xmlns="http://www.w3.org/2000/svg" xmlns:xlink="http://www.w3.org/1999/xlink">
    <!-- Generator: Sketch 46.1 (44463) - http://www.bohemiancoding.com/sketch -->
    <title>apExternalLink</title>
    <desc>Created with Sketch.</desc>
    <defs></defs>
    <g id="2017-iterations" stroke="none" stroke-width="1" fill="none" fill-rule="evenodd">
        <g id="externallink" fill="#5FC900">
            <path d="M28.1329923,15.7199488 L28.1329923,17.0076726 C28.1329923,19.6803069 27.1312873,21.9682438 25.1278772,23.8714834 C23.1244672,25.7747229 20.7161125,26.7263427 17.9028133,26.7263427 L10.230179,26.7263427 C7.41773231,26.7263427 5.00852515,25.7747229 3.0059676,23.8714834 C1.00170503,21.9682438 0,19.6803069 0,17.0076726 L0,9.71867008 C0,7.04603581 1.00170503,4.75890878 3.0059676,2.85485934 C5.00852515,0.951619778 7.41773231,0 10.230179,0 L16.9053708,0 L16.9573743,1.94373402 C14.6896846,2.46287298 12.8303495,3.43393009 11.3810742,4.85933504 L7.67263427,4.85933504 C6.97357204,4.85933504 6.37254902,5.09906223 5.86956522,5.57608696 C5.36658142,6.05392157 5.11508951,6.62489344 5.11508951,7.28900256 L5.11508951,19.4373402 C5.11508951,20.1014493 5.36658142,20.6724211 5.86956522,21.1502558 C6.37254902,21.6280904 6.97357204,21.8670077 7.67263427,21.8670077 L20.4603581,21.8670077 C21.1602728,21.8670077 21.7612958,21.6280904 22.2642796,21.1502558 C22.7664109,20.6724211 23.0179028,20.1014493 23.0179028,19.4373402 L28.1329923,15.7199488 L28.1329923,15.7199488 L28.1329923,15.7199488 L28.1329923,15.7199488 Z M20.7936914,16.2544757 L30,8.38235294 L20.8184143,0.65601023 L20.8184143,5.90409207 C20.6990622,5.90409207 20.5370844,5.91219096 20.3324808,5.92838875 C20.1278772,5.94458653 19.7186701,6.01018755 19.1048593,6.12276215 C18.4910486,6.23614663 17.8976982,6.38597613 17.3282182,6.57225064 C16.7561807,6.75852515 16.1040068,7.05818414 15.370844,7.47122762 C14.6376812,7.8842711 13.9855072,8.36210571 13.4143223,8.90473146 C12.8431373,9.44816709 12.3154305,10.1600597 11.8286445,11.0428389 C11.342711,11.9256181 11.0059676,12.9096334 10.8184143,13.9948849 C11.3299233,13.3793691 12.0247229,12.8610401 12.9028133,12.4398977 C13.7809037,12.0187553 14.6598465,11.7312447 15.5370844,11.5773657 C16.4151748,11.4234868 17.258312,11.3101023 18.0699062,11.2372123 C18.8789429,11.1643223 19.5396419,11.136786 20.0511509,11.1521739 L20.7936914,11.1764706 L20.7936914,16.2544757 L20.7936914,16.2544757 Z" id="apExternalLink"></path>
        </g>
    </g>
</svg>