<?xml version="1.0" encoding="UTF-8"?>
<svg width="30px" height="30px" viewBox="0 0 30 30" version="1.1" xmlns="http://www.w3.org/2000/svg" xmlns:xlink="http://www.w3.org/1999/xlink">
    <!-- Generator: Sketch 46.1 (44463) - http://www.bohemiancoding.com/sketch -->
    <title>apStep1-3</title>
    <desc>Created with Sketch.</desc>
    <defs></defs>
    <g id="AccepTx-Pro" stroke="none" stroke-width="1" fill="none" fill-rule="evenodd">
        <g id="apStep1-3">
            <rect id="Bounding-Box" fill-opacity="0" fill="#FFFFFF" x="0" y="0" width="30" height="30"></rect>
            <g>
                <circle id="Oval" fill="#FFFFFF" cx="15" cy="15" r="15"></circle>
                <path d="M17.5253906,15.2392578 C18.052737,15.5875668 18.4531236,16.01725 18.7265625,16.5283203 C19.0000014,17.0393906 19.1367188,17.5813773 19.1367188,18.1542969 C19.1367188,19.0787807 18.8697943,19.9332643 18.3359375,20.7177734 C17.8020807,21.5022826 17.0371144,22.1305315 16.0410156,22.6025391 C15.0449169,23.0745466 13.8828191,23.3105469 12.5546875,23.3105469 C11.9296844,23.3105469 11.2428423,23.2454434 10.4941406,23.1152344 L10.484375,21.6308594 C11.0377632,21.741537 11.571612,21.796875 12.0859375,21.796875 C13.0299526,21.796875 13.8714156,21.6422542 14.6103516,21.3330078 C15.3492875,21.0237615 15.9238261,20.6038438 16.3339844,20.0732422 C16.7441427,19.5426406 16.9492188,18.9550813 16.9492188,18.3105469 C16.9492188,17.4837198 16.703453,16.8294295 16.2119141,16.3476562 C15.7203751,15.865883 14.9700571,15.625 13.9609375,15.625 C13.8632808,15.625 13.6972668,15.6315104 13.4628906,15.6445312 L12.5742188,15.859375 L12.125,14.3847656 C12.7890658,14.2545566 13.3815078,14.075522 13.9023438,13.8476562 C14.6380245,13.5611965 15.2093079,13.1803409 15.6162109,12.7050781 C16.023114,12.2298153 16.2265625,11.705732 16.2265625,11.1328125 C16.2265625,10.4427049 16.0149761,9.93326987 15.5917969,9.60449219 C15.1686177,9.2757145 14.6119826,9.11132812 13.921875,9.11132812 C13.2968719,9.11132812 12.7402368,9.2089834 12.2519531,9.40429688 C11.7636694,9.59961035 11.2981793,9.85351406 10.8554688,10.1660156 L10.015625,8.9453125 C10.4843773,8.561196 11.0914676,8.20963701 11.8369141,7.890625 C12.5823605,7.57161299 13.3391889,7.41210938 14.1074219,7.41210938 C14.8821653,7.41210938 15.5917937,7.54557158 16.2363281,7.8125 C16.8808626,8.07942842 17.3935528,8.47493228 17.7744141,8.99902344 C18.1552753,9.5231146 18.3457031,10.1595015 18.3457031,10.9082031 C18.3457031,11.7089884 18.0983098,12.4283822 17.6035156,13.0664062 C17.1087215,13.7044303 16.4609415,14.2122377 15.6601562,14.5898438 C16.3763057,14.6744796 16.9980442,14.8909488 17.5253906,15.2392578 Z" id="3" fill="#13966C"></path>
            </g>
        </g>
    </g>
</svg>