<?xml version="1.0" encoding="UTF-8"?>
<svg width="30px" height="30px" viewBox="0 0 30 30" version="1.1" xmlns="http://www.w3.org/2000/svg" xmlns:xlink="http://www.w3.org/1999/xlink">
    <!-- Generator: Sketch 46.1 (44463) - http://www.bohemiancoding.com/sketch -->
    <title>apStep1-2</title>
    <desc>Created with Sketch.</desc>
    <defs></defs>
    <g id="AccepTx-Pro" stroke="none" stroke-width="1" fill="none" fill-rule="evenodd">
        <g id="apStep1-2">
            <rect id="Bounding-Box" fill-opacity="0" fill="#FFFFFF" x="0" y="0" width="30" height="30"></rect>
            <g>
                <circle id="Oval" fill="#FFFFFF" cx="15" cy="15" r="15"></circle>
                <path d="M20.2904688,20.3676177 L20.2904688,22.2170759 L10.4162428,22.2170759 L10.0714286,21.0363483 C11.3462027,20.2979546 12.5216941,19.4812058 13.5979379,18.5860774 C14.6741816,17.6909491 15.5483989,16.7505561 16.2206159,15.76487 C16.8928329,14.779184 17.2289363,13.8231177 17.2289363,12.8966425 C17.2289363,12.1721806 17.0164771,11.5992374 16.5915524,11.1777957 C16.1666277,10.756354 15.5536307,10.5456363 14.7525431,10.5456363 C14.0907751,10.5456363 13.4412073,10.6884367 12.8038202,10.9740418 C12.1664331,11.259647 11.645734,11.6114236 11.2417072,12.0293824 L10.269958,10.7337168 C10.7645425,10.1903704 11.4141103,9.71843238 12.2186809,9.31788859 C13.0232515,8.91734479 13.9514543,8.71707589 15.0033171,8.71707589 C16.6194243,8.71707589 17.7844668,9.09497459 18.4984797,9.85078332 C19.2124925,10.6065921 19.5694936,11.580073 19.5694936,12.7712555 C19.5694936,13.6559348 19.3343953,14.5527912 18.8641917,15.4618514 C18.3939881,16.3709117 17.7304886,17.2486119 16.8736732,18.0949784 C16.0168577,18.9413448 15.0137718,19.7197813 13.8643852,20.4303112 L20.2904688,20.3676177 Z" id="2" fill="#13966C"></path>
            </g>
        </g>
    </g>
</svg>